<svg width="99" height="99" viewBox="0 0 99 99" fill="none" xmlns="http://www.w3.org/2000/svg">
<g id="Asset 14" clip-path="url(#clip0_896_469)">
<g id="Layer 2">
<g id="Layer 1">
<path id="Vector" d="M49.4997 97.9724C76.2702 97.9724 97.972 76.2706 97.972 49.5C97.972 22.7295 76.2702 1.02771 49.4997 1.02771C22.7291 1.02771 1.02734 22.7295 1.02734 49.5C1.02734 76.2706 22.7291 97.9724 49.4997 97.9724Z" stroke="#B5AEA0" stroke-width="3" stroke-miterlimit="10"/>
<g id="Accept">
<path id="Vector_2" d="M36.558 70.9649H32.4473C32.3325 70.9544 32.2169 70.968 32.1077 71.0047C31.9985 71.0414 31.8981 71.1005 31.813 71.1782C31.7279 71.2559 31.66 71.3504 31.6135 71.4559C31.567 71.5613 31.543 71.6752 31.543 71.7904C31.543 71.9056 31.567 72.0196 31.6135 72.125C31.66 72.2304 31.7279 72.325 31.813 72.4026C31.8981 72.4803 31.9985 72.5394 32.1077 72.5762C32.2169 72.6129 32.3325 72.6265 32.4473 72.616H36.558C36.6727 72.6265 36.7884 72.6129 36.8976 72.5762C37.0068 72.5394 37.1071 72.4803 37.1922 72.4026C37.2773 72.325 37.3452 72.2304 37.3917 72.125C37.4382 72.0196 37.4623 71.9056 37.4623 71.7904C37.4623 71.6752 37.4382 71.5613 37.3917 71.4559C37.3452 71.3504 37.2773 71.2559 37.1922 71.1782C37.1071 71.1005 37.0068 71.0414 36.8976 71.0047C36.7884 70.968 36.6727 70.9544 36.558 70.9649Z" fill="#B5AEA0"/>
<path id="Vector_3" d="M39.8601 70.9648H39.0517C38.8318 70.9648 38.6209 71.0522 38.4655 71.2077C38.31 71.3631 38.2227 71.574 38.2227 71.7938C38.2227 72.0137 38.31 72.2246 38.4655 72.38C38.6209 72.5355 38.8318 72.6228 39.0517 72.6228H39.8738C39.9885 72.6333 40.1042 72.6197 40.2134 72.583C40.3226 72.5463 40.4229 72.4872 40.508 72.4095C40.5931 72.3318 40.6611 72.2372 40.7076 72.1318C40.7541 72.0264 40.7781 71.9125 40.7781 71.7973C40.7781 71.6821 40.7541 71.5681 40.7076 71.4627C40.6611 71.3573 40.5931 71.2627 40.508 71.185C40.4229 71.1074 40.3226 71.0483 40.2134 71.0115C40.1042 70.9748 39.9885 70.9612 39.8738 70.9717L39.8601 70.9648Z" fill="#B5AEA0"/>
<path id="Vector_4" d="M34.0839 38.7711H60.4953C60.7152 38.7711 60.926 38.6837 61.0815 38.5282C61.237 38.3728 61.3243 38.1619 61.3243 37.9421V34.6398C61.3225 34.4211 61.2344 34.212 61.0791 34.058C60.9238 33.904 60.714 33.8176 60.4953 33.8176H34.0839C33.8652 33.8176 33.6554 33.904 33.5001 34.058C33.3448 34.212 33.2567 34.4211 33.2549 34.6398V37.9421C33.2549 38.1619 33.3422 38.3728 33.4977 38.5282C33.6532 38.6837 33.864 38.7711 34.0839 38.7711ZM34.9403 35.4688H59.6732V37.1199H34.9403V35.4688Z" fill="#B5AEA0"/>
<path id="Vector_5" d="M34.084 45.3757H60.4954C60.6054 45.3757 60.7144 45.3538 60.8158 45.3113C60.9173 45.2688 61.0093 45.2065 61.0865 45.128C61.1637 45.0496 61.2244 44.9566 61.2653 44.8544C61.3061 44.7523 61.3262 44.643 61.3244 44.533V41.2444C61.3226 41.0257 61.2345 40.8166 61.0792 40.6626C60.9239 40.5086 60.7141 40.4222 60.4954 40.4222H34.084C33.8653 40.4222 33.6555 40.5086 33.5002 40.6626C33.3449 40.8166 33.2568 41.0257 33.255 41.2444V44.533C33.2532 44.643 33.2733 44.7523 33.3141 44.8544C33.355 44.9566 33.4157 45.0496 33.4929 45.128C33.5701 45.2065 33.6621 45.2688 33.7636 45.3113C33.865 45.3538 33.974 45.3757 34.084 45.3757ZM34.9404 42.0734H59.6733V43.7245H34.9404V42.0734Z" fill="#B5AEA0"/>
<path id="Vector_6" d="M34.0839 51.9802H60.4953C60.7152 51.9802 60.926 51.8928 61.0815 51.7374C61.237 51.5819 61.3243 51.371 61.3243 51.1512V47.8489C61.3225 47.6302 61.2344 47.4211 61.0791 47.2671C60.9238 47.1131 60.714 47.0267 60.4953 47.0267H34.0839C33.8652 47.0267 33.6554 47.1131 33.5001 47.2671C33.3448 47.4211 33.2567 47.6302 33.2549 47.8489V51.1512C33.2549 51.371 33.3422 51.5819 33.4977 51.7374C33.6532 51.8928 33.864 51.9802 34.0839 51.9802ZM34.9403 48.6779H59.6732V50.329H34.9403V48.6779Z" fill="#B5AEA0"/>
<path id="Vector_7" d="M49.7664 53.6314H34.084C33.9692 53.6209 33.8536 53.6345 33.7444 53.6712C33.6352 53.7079 33.5348 53.767 33.4497 53.8447C33.3647 53.9224 33.2967 54.0169 33.2502 54.1224C33.2037 54.2278 33.1797 54.3417 33.1797 54.4569C33.1797 54.5721 33.2037 54.6861 33.2502 54.7915C33.2967 54.8969 33.3647 54.9915 33.4497 55.0692C33.5348 55.1468 33.6352 55.2059 33.7444 55.2427C33.8536 55.2794 33.9692 55.293 34.084 55.2825H49.7664C49.8811 55.293 49.9968 55.2794 50.106 55.2427C50.2152 55.2059 50.3155 55.1468 50.4006 55.0692C50.4857 54.9915 50.5537 54.8969 50.6002 54.7915C50.6467 54.6861 50.6707 54.5721 50.6707 54.4569C50.6707 54.3417 50.6467 54.2278 50.6002 54.1224C50.5537 54.0169 50.4857 53.9224 50.4006 53.8447C50.3155 53.767 50.2152 53.7079 50.106 53.6712C49.9968 53.6345 49.8811 53.6209 49.7664 53.6314Z" fill="#B5AEA0"/>
<path id="Vector_8" d="M44.813 56.1046H34.084C33.9692 56.0942 33.8536 56.1077 33.7444 56.1445C33.6352 56.1812 33.5348 56.2403 33.4497 56.318C33.3647 56.3956 33.2967 56.4902 33.2502 56.5956C33.2037 56.701 33.1797 56.815 33.1797 56.9302C33.1797 57.0454 33.2037 57.1594 33.2502 57.2648C33.2967 57.3702 33.3647 57.4647 33.4497 57.5424C33.5348 57.6201 33.6352 57.6792 33.7444 57.7159C33.8536 57.7527 33.9692 57.7662 34.084 57.7558H44.813C44.9277 57.7662 45.0434 57.7527 45.1526 57.7159C45.2618 57.6792 45.3621 57.6201 45.4472 57.5424C45.5323 57.4647 45.6002 57.3702 45.6467 57.2648C45.6932 57.1594 45.7172 57.0454 45.7172 56.9302C45.7172 56.815 45.6932 56.701 45.6467 56.5956C45.6002 56.4902 45.5323 56.3956 45.4472 56.318C45.3621 56.2403 45.2618 56.1812 45.1526 56.1445C45.0434 56.1077 44.9277 56.0942 44.813 56.1046Z" fill="#B5AEA0"/>
<path id="Vector_9" d="M35.7351 60.229C35.9411 60.2102 36.1326 60.1151 36.2721 59.9624C36.4115 59.8096 36.4888 59.6103 36.4888 59.4035C36.4888 59.1966 36.4115 58.9973 36.2721 58.8445C36.1326 58.6918 35.9411 58.5967 35.7351 58.5779H34.084C33.9692 58.5674 33.8536 58.581 33.7444 58.6177C33.6352 58.6545 33.5348 58.7136 33.4497 58.7912C33.3647 58.8689 33.2967 58.9635 33.2502 59.0689C33.2037 59.1743 33.1797 59.2882 33.1797 59.4035C33.1797 59.5187 33.2037 59.6326 33.2502 59.738C33.2967 59.8434 33.3647 59.938 33.4497 60.0157C33.5348 60.0934 33.6352 60.1525 33.7444 60.1892C33.8536 60.2259 33.9692 60.2395 34.084 60.229H35.7351Z" fill="#B5AEA0"/>
<path id="Vector_10" d="M39.0515 60.229C39.2575 60.2102 39.449 60.1151 39.5884 59.9624C39.7279 59.8096 39.8052 59.6103 39.8052 59.4035C39.8052 59.1966 39.7279 58.9973 39.5884 58.8445C39.449 58.6918 39.2575 58.5967 39.0515 58.5779H38.2088C38.0028 58.5967 37.8113 58.6918 37.6718 58.8445C37.5324 58.9973 37.4551 59.1966 37.4551 59.4035C37.4551 59.6103 37.5324 59.8096 37.6718 59.9624C37.8113 60.1151 38.0028 60.2102 38.2088 60.229H39.0515Z" fill="#B5AEA0"/>
<path id="Vector_11" d="M74.5339 62.7092C74.5307 60.225 73.5956 57.8323 71.9135 56.0043C70.2313 54.1763 67.9246 53.0459 65.4492 52.8366V31.3443C65.45 31.2352 65.4292 31.1269 65.3881 31.0258C65.3469 30.9247 65.2862 30.8327 65.2094 30.7551L58.6048 24.1506C58.4498 23.9971 58.2406 23.911 58.0225 23.9108H29.9325C29.7126 23.9108 29.5018 23.9981 29.3463 24.1536C29.1909 24.309 29.1035 24.5199 29.1035 24.7398V74.2672C29.1053 74.4858 29.1935 74.6949 29.3487 74.8489C29.504 75.0029 29.7138 75.0893 29.9325 75.0893H64.5996C64.8177 75.0893 65.0268 75.0027 65.181 74.8485C65.3352 74.6943 65.4218 74.4852 65.4218 74.2672V72.5818C67.9015 72.3774 70.2141 71.2494 71.9016 69.421C73.5891 67.5927 74.5286 65.1973 74.5339 62.7092ZM58.8446 26.7198L62.6333 30.5016H58.8446V26.7198ZM30.7547 73.4245V25.5619H57.1935V31.3443C57.1898 31.4555 57.2085 31.5662 57.2485 31.67C57.2886 31.7738 57.349 31.8684 57.4264 31.9483C57.5037 32.0282 57.5964 32.0917 57.6988 32.1351C57.8012 32.1785 57.9113 32.2008 58.0225 32.2007H63.798V52.8366C61.3217 53.0431 59.0133 54.1726 57.3308 56.0013C55.6482 57.83 54.7143 60.2242 54.7143 62.7092C54.7143 65.1941 55.6482 67.5884 57.3308 69.417C59.0133 71.2457 61.3217 72.3753 63.798 72.5818V73.4382L30.7547 73.4245ZM64.5996 70.9512C62.9736 70.9512 61.3841 70.469 60.032 69.5656C58.68 68.6622 57.6263 67.3782 57.004 65.8759C56.3817 64.3737 56.2189 62.7206 56.5362 61.1258C56.8534 59.531 57.6364 58.0661 58.7862 56.9163C59.936 55.7665 61.4009 54.9835 62.9957 54.6662C64.5905 54.349 66.2436 54.5118 67.7459 55.1341C69.2481 55.7564 70.5321 56.8101 71.4355 58.1621C72.3389 59.5141 72.8211 61.1037 72.8211 62.7297C72.8157 64.9051 71.952 66.9904 70.4177 68.5324C68.8833 70.0745 66.8023 70.9486 64.627 70.9649L64.5996 70.9512Z" fill="#B5AEA0"/>
</g>
</g>
</g>
</g>
<defs>
<clipPath id="clip0_896_469">
<rect width="99" height="99" fill="white"/>
</clipPath>
</defs>
</svg>
