<svg width="99" height="99" viewBox="0 0 99 99" fill="none" xmlns="http://www.w3.org/2000/svg">
<g id="Asset 18" clip-path="url(#clip0_896_488)">
<g id="Layer 2">
<g id="Layer 1">
<path id="Vector" d="M49.4997 97.9723C76.2702 97.9723 97.972 76.2705 97.972 49.5C97.972 22.7295 76.2702 1.02771 49.4997 1.02771C22.7291 1.02771 1.02734 22.7295 1.02734 49.5C1.02734 76.2705 22.7291 97.9723 49.4997 97.9723Z" stroke="#B5AEA0" stroke-width="3" stroke-miterlimit="10"/>
<path id="Vector_2" d="M69.5124 45.4715C69.6501 45.4724 69.7866 45.4462 69.9141 45.3944C70.0416 45.3425 70.1577 45.2661 70.2557 45.1694C70.3536 45.0727 70.4316 44.9576 70.4851 44.8308C70.5386 44.7039 70.5666 44.5678 70.5675 44.4301V31.1045C70.5678 30.9679 70.5406 30.8327 70.4877 30.7067C70.4347 30.5808 70.357 30.4668 70.2592 30.3715L63.2641 23.3901C63.0691 23.1969 62.8056 23.0885 62.531 23.0886H31.5499C30.7291 23.0904 29.9425 23.4173 29.3621 23.9976C28.7818 24.578 28.4549 25.3646 28.4531 26.1854V72.8079C28.4531 73.6304 28.7789 74.4195 29.3593 75.0024C29.9397 75.5854 30.7273 75.9147 31.5499 75.9183H67.4434C68.2678 75.9165 69.0579 75.5882 69.6408 75.0053C70.2237 74.4224 70.552 73.6322 70.5538 72.8079V53.323C70.5139 53.0793 70.3886 52.8576 70.2003 52.6977C70.0121 52.5378 69.7731 52.45 69.5261 52.45C69.2791 52.45 69.0402 52.5378 68.8519 52.6977C68.6637 52.8576 68.5384 53.0793 68.4985 53.323V72.8079C68.4985 73.0804 68.3902 73.3418 68.1974 73.5345C68.0047 73.7273 67.7433 73.8355 67.4708 73.8355H31.5499C31.4158 73.8346 31.2832 73.8074 31.1597 73.7552C31.0362 73.7031 30.9242 73.6271 30.83 73.5317C30.7359 73.4363 30.6614 73.3232 30.611 73.199C30.5605 73.0748 30.535 72.9419 30.5359 72.8079V26.2196C30.5359 25.9507 30.6427 25.6928 30.8329 25.5026C31.023 25.3125 31.2809 25.2056 31.5499 25.2056H61.4897V29.0766C61.4897 29.8997 61.8166 30.6891 62.3987 31.2712C62.9807 31.8532 63.7701 32.1802 64.5933 32.1802H68.4711V44.4301C68.4711 44.5669 68.498 44.7023 68.5503 44.8287C68.6026 44.955 68.6794 45.0698 68.7761 45.1665C68.8728 45.2632 68.9876 45.3399 69.1139 45.3923C69.2403 45.4446 69.3757 45.4715 69.5124 45.4715ZM63.5724 29.0286V26.6376L66.998 30.0632H64.5933C64.3225 30.0632 64.0629 29.9556 63.8714 29.7642C63.68 29.5727 63.5724 29.3131 63.5724 29.0423V29.0286Z" fill="#B5AEA0"/>
<path id="Vector_3" d="M58.1045 37.2912H53.6787C53.4349 37.2513 53.2133 37.126 53.0534 36.9377C52.8935 36.7495 52.8057 36.5105 52.8057 36.2635C52.8057 36.0165 52.8935 35.7776 53.0534 35.5893C53.2133 35.4011 53.4349 35.2758 53.6787 35.2358H58.1045C58.3483 35.2758 58.5699 35.4011 58.7298 35.5893C58.8898 35.7776 58.9776 36.0165 58.9776 36.2635C58.9776 36.5105 58.8898 36.7495 58.7298 36.9377C58.5699 37.126 58.3483 37.2513 58.1045 37.2912Z" fill="#B5AEA0"/>
<path id="Vector_4" d="M51.2946 35.7222C51.3046 36.0123 51.2571 36.3015 51.1548 36.5731C51.0525 36.8447 50.8974 37.0934 50.6986 37.3048C50.3271 37.6938 49.8514 37.9674 49.3283 38.0927V38.9765C49.3284 39.1747 49.2511 39.3651 49.1129 39.5071C48.9747 39.6492 48.7865 39.7317 48.5884 39.737C48.4906 39.737 48.3939 39.7177 48.3036 39.6801C48.2134 39.6424 48.1315 39.5873 48.0627 39.5179C47.994 39.4485 47.9396 39.3661 47.9028 39.2755C47.866 39.1849 47.8476 39.088 47.8485 38.9902V38.0996C47.523 38.028 47.2124 37.9005 46.9304 37.7228C46.6371 37.5506 46.3846 37.3169 46.1905 37.0377C45.5053 36.1401 46.6358 35.1741 47.2935 35.8661L47.5539 36.1607C47.6865 36.2887 47.845 36.3867 48.0187 36.4482C48.1925 36.5096 48.3774 36.5331 48.561 36.517C49.1844 36.517 49.4996 36.2566 49.4996 35.7428C49.4996 35.5578 49.3763 35.4208 49.1433 35.318C48.8673 35.1994 48.5805 35.1076 48.2869 35.0439C47.9414 34.9649 47.6024 34.8595 47.273 34.7288C46.9277 34.5873 46.6304 34.3494 46.4166 34.0437C46.1664 33.6774 46.0414 33.2399 46.0603 32.7968C46.0605 32.2989 46.2295 31.8158 46.5399 31.4265C46.8694 31.0168 47.3372 30.7415 47.8553 30.6523V29.6178C47.8454 29.5142 47.8572 29.4096 47.89 29.3108C47.9228 29.2121 47.9759 29.1212 48.0459 29.0442C48.1159 28.9671 48.2013 28.9056 48.2964 28.8634C48.3916 28.8213 48.4946 28.7996 48.5987 28.7996C48.7028 28.7996 48.8057 28.8213 48.9009 28.8634C48.9961 28.9056 49.0814 28.9671 49.1514 29.0442C49.2214 29.1212 49.2745 29.2121 49.3073 29.3108C49.3402 29.4096 49.352 29.5142 49.342 29.6178V30.6455C49.5714 30.685 49.7962 30.7469 50.0134 30.8305C50.1553 30.8951 50.2906 30.9731 50.4177 31.0634L50.5273 31.1662C51.507 31.8924 50.5273 33.2215 49.7188 32.4884C49.1502 32.002 47.8485 31.8992 47.8485 32.783C47.8494 32.8735 47.874 32.9621 47.9196 33.0402C47.9653 33.1183 48.0305 33.1832 48.1088 33.2284C48.3018 33.3502 48.5194 33.4274 48.746 33.4545C49.0283 33.5008 49.3075 33.5648 49.5818 33.6463C49.8674 33.7291 50.1467 33.8321 50.4177 33.9546C50.6915 34.0919 50.9146 34.3126 51.0548 34.5849C51.2353 34.9357 51.3181 35.3285 51.2946 35.7222Z" fill="#B5AEA0"/>
<path id="Vector_5" d="M43.286 37.2912H38.8602C38.7111 37.3156 38.5586 37.3074 38.4131 37.267C38.2676 37.2265 38.1326 37.155 38.0176 37.0572C37.9025 36.9595 37.81 36.8378 37.7466 36.7008C37.6832 36.5637 37.6504 36.4146 37.6504 36.2636C37.6504 36.1126 37.6832 35.9634 37.7466 35.8263C37.81 35.6893 37.9025 35.5676 38.0176 35.4699C38.1326 35.3721 38.2676 35.3006 38.4131 35.2601C38.5586 35.2197 38.7111 35.2115 38.8602 35.2359H43.286C43.5298 35.2758 43.7514 35.4011 43.9113 35.5893C44.0712 35.7776 44.159 36.0165 44.159 36.2636C44.159 36.5106 44.0712 36.7495 43.9113 36.9378C43.7514 37.126 43.5298 37.2513 43.286 37.2912Z" fill="#B5AEA0"/>
<path id="Vector_6" d="M58.1045 33.571H53.6787C53.4349 33.5311 53.2133 33.4058 53.0534 33.2175C52.8935 33.0293 52.8057 32.7903 52.8057 32.5433C52.8057 32.2963 52.8935 32.0573 53.0534 31.8691C53.2133 31.6808 53.4349 31.5556 53.6787 31.5156H58.1045C58.3483 31.5556 58.5699 31.6808 58.7298 31.8691C58.8898 32.0573 58.9776 32.2963 58.9776 32.5433C58.9776 32.7903 58.8898 33.0293 58.7298 33.2175C58.5699 33.4058 58.3483 33.5311 58.1045 33.571Z" fill="#B5AEA0"/>
<path id="Vector_7" d="M43.286 33.571H38.8602C38.7111 33.5954 38.5586 33.5871 38.4131 33.5467C38.2676 33.5063 38.1326 33.4348 38.0176 33.337C37.9025 33.2392 37.81 33.1176 37.7466 32.9806C37.6832 32.8435 37.6504 32.6943 37.6504 32.5433C37.6504 32.3923 37.6832 32.2431 37.7466 32.1061C37.81 31.969 37.9025 31.8474 38.0176 31.7497C38.1326 31.6519 38.2676 31.5803 38.4131 31.5399C38.5586 31.4995 38.7111 31.4912 38.8602 31.5157H43.286C43.5298 31.5556 43.7514 31.6809 43.9113 31.8691C44.0712 32.0574 44.159 32.2963 44.159 32.5433C44.159 32.7903 44.0712 33.0293 43.9113 33.2176C43.7514 33.4058 43.5298 33.5311 43.286 33.571Z" fill="#B5AEA0"/>
<path id="Vector_8" d="M60.1943 45.2866H48.3691C48.1253 45.2466 47.9037 45.1213 47.7438 44.9331C47.5839 44.7449 47.4961 44.5059 47.4961 44.2589C47.4961 44.0119 47.5839 43.7729 47.7438 43.5847C47.9037 43.3964 48.1253 43.2711 48.3691 43.2312H60.1943C60.438 43.2711 60.6597 43.3964 60.8196 43.5847C60.9795 43.7729 61.0673 44.0119 61.0673 44.2589C61.0673 44.5059 60.9795 44.7449 60.8196 44.9331C60.6597 45.1213 60.438 45.2466 60.1943 45.2866Z" fill="#B5AEA0"/>
<path id="Vector_9" d="M60.1941 49.2191H48.3689C48.2199 49.2435 48.0674 49.2352 47.9219 49.1948C47.7764 49.1544 47.6414 49.0828 47.5263 48.9851C47.4113 48.8873 47.3188 48.7657 47.2554 48.6287C47.192 48.4916 47.1592 48.3424 47.1592 48.1914C47.1592 48.0404 47.192 47.8912 47.2554 47.7542C47.3188 47.6171 47.4113 47.4955 47.5263 47.3977C47.6414 47.3 47.7764 47.2284 47.9219 47.188C48.0674 47.1476 48.2199 47.1393 48.3689 47.1637H60.1941C60.3431 47.1393 60.4957 47.1476 60.6412 47.188C60.7867 47.2284 60.9216 47.3 61.0367 47.3977C61.1518 47.4955 61.2443 47.6171 61.3077 47.7542C61.3711 47.8912 61.4039 48.0404 61.4039 48.1914C61.4039 48.3424 61.3711 48.4916 61.3077 48.6287C61.2443 48.7657 61.1518 48.8873 61.0367 48.9851C60.9216 49.0828 60.7867 49.1544 60.6412 49.1948C60.4957 49.2352 60.3431 49.2435 60.1941 49.2191Z" fill="#B5AEA0"/>
<path id="Vector_10" d="M43.3949 49.8563H37.2699C36.9949 49.8563 36.731 49.7475 36.5359 49.5537C36.3408 49.3599 36.2303 49.0968 36.2285 48.8218V43.2449C36.2285 42.9687 36.3382 42.7038 36.5335 42.5085C36.7288 42.3132 36.9937 42.2035 37.2699 42.2035H43.3949C43.5316 42.2035 43.6671 42.2304 43.7934 42.2828C43.9197 42.3351 44.0345 42.4118 44.1313 42.5085C44.228 42.6052 44.3047 42.72 44.357 42.8464C44.4093 42.9727 44.4363 43.1081 44.4363 43.2449V48.8218C44.4345 49.0968 44.3239 49.3599 44.1288 49.5537C43.9337 49.7475 43.6699 49.8563 43.3949 49.8563ZM38.3113 47.8009H42.3535V44.3068H38.3113V47.8009Z" fill="#B5AEA0"/>
<path id="Vector_11" d="M43.3949 59.359H37.2699C36.9937 59.359 36.7288 59.2492 36.5335 59.0539C36.3382 58.8586 36.2285 58.5938 36.2285 58.3176V52.7544C36.2285 52.4782 36.3382 52.2133 36.5335 52.018C36.7288 51.8227 36.9937 51.713 37.2699 51.713H43.3949C43.6711 51.713 43.936 51.8227 44.1313 52.018C44.3265 52.2133 44.4363 52.4782 44.4363 52.7544V58.3313C44.4327 58.6051 44.3214 58.8665 44.1264 59.0588C43.9315 59.2512 43.6687 59.359 43.3949 59.359ZM38.3113 57.3036H42.3535V53.7821H38.3113V57.3036Z" fill="#B5AEA0"/>
<path id="Vector_12" d="M43.3949 69.8345H37.2699C36.9937 69.8345 36.7288 69.7247 36.5335 69.5294C36.3382 69.3341 36.2285 69.0693 36.2285 68.7931V63.2162C36.2285 62.94 36.3382 62.6751 36.5335 62.4798C36.7288 62.2845 36.9937 62.1748 37.2699 62.1748H43.3949C43.6711 62.1748 43.936 62.2845 44.1313 62.4798C44.3265 62.6751 44.4363 62.94 44.4363 63.2162V68.7931C44.4363 69.0693 44.3265 69.3341 44.1313 69.5294C43.936 69.7247 43.6711 69.8345 43.3949 69.8345ZM38.3113 67.7791H42.3535V64.285H38.3113V67.7791Z" fill="#B5AEA0"/>
<path id="Vector_13" d="M60.1259 54.6111H48.3007C48.057 54.5711 47.8354 54.4458 47.6754 54.2576C47.5155 54.0693 47.4277 53.8304 47.4277 53.5834C47.4277 53.3364 47.5155 53.0974 47.6754 52.9092C47.8354 52.7209 48.057 52.5956 48.3007 52.5557H60.1259C60.2749 52.5313 60.4275 52.5396 60.573 52.58C60.7185 52.6204 60.8534 52.6919 60.9685 52.7897C61.0836 52.8875 61.1761 53.0091 61.2395 53.1461C61.3029 53.2832 61.3357 53.4324 61.3357 53.5834C61.3357 53.7344 61.3029 53.8836 61.2395 54.0206C61.1761 54.1577 61.0836 54.2793 60.9685 54.377C60.8534 54.4748 60.7185 54.5464 60.573 54.5868C60.4275 54.6272 60.2749 54.6355 60.1259 54.6111Z" fill="#B5AEA0"/>
<path id="Vector_14" d="M60.1259 58.5505H48.3007C48.057 58.5106 47.8354 58.3853 47.6754 58.197C47.5155 58.0088 47.4277 57.7698 47.4277 57.5228C47.4277 57.2758 47.5155 57.0369 47.6754 56.8486C47.8354 56.6604 48.057 56.5351 48.3007 56.4951H60.1259C60.2749 56.4707 60.4275 56.479 60.573 56.5194C60.7185 56.5598 60.8534 56.6314 60.9685 56.7292C61.0836 56.8269 61.1761 56.9485 61.2395 57.0856C61.3029 57.2226 61.3357 57.3718 61.3357 57.5228C61.3357 57.6738 61.3029 57.823 61.2395 57.9601C61.1761 58.0971 61.0836 58.2187 60.9685 58.3165C60.8534 58.4143 60.7185 58.4858 60.573 58.5262C60.4275 58.5666 60.2749 58.5749 60.1259 58.5505Z" fill="#B5AEA0"/>
<path id="Vector_15" d="M60.1328 65.1413H48.3007C48.057 65.1014 47.8354 64.9761 47.6754 64.7878C47.5155 64.5996 47.4277 64.3606 47.4277 64.1136C47.4277 63.8666 47.5155 63.6277 47.6754 63.4394C47.8354 63.2512 48.057 63.1259 48.3007 63.0859H60.1328C60.3765 63.1259 60.5982 63.2512 60.7581 63.4394C60.918 63.6277 61.0058 63.8666 61.0058 64.1136C61.0058 64.3606 60.918 64.5996 60.7581 64.7878C60.5982 64.9761 60.3765 65.1014 60.1328 65.1413Z" fill="#B5AEA0"/>
<path id="Vector_16" d="M60.1328 69.0739H48.3007C48.057 69.034 47.8354 68.9087 47.6754 68.7205C47.5155 68.5322 47.4277 68.2932 47.4277 68.0462C47.4277 67.7992 47.5155 67.5603 47.6754 67.372C47.8354 67.1838 48.057 67.0585 48.3007 67.0186H60.1328C60.3765 67.0585 60.5982 67.1838 60.7581 67.372C60.918 67.5603 61.0058 67.7992 61.0058 68.0462C61.0058 68.2932 60.918 68.5322 60.7581 68.7205C60.5982 68.9087 60.3765 69.034 60.1328 69.0739Z" fill="#B5AEA0"/>
<path id="Vector_17" d="M69.5121 49.5891C69.2359 49.5891 68.971 49.4794 68.7757 49.2841C68.5804 49.0888 68.4707 48.8239 68.4707 48.5477C68.5106 48.3039 68.6359 48.0823 68.8242 47.9224C69.0124 47.7625 69.2514 47.6747 69.4984 47.6747C69.7454 47.6747 69.9843 47.7625 70.1726 47.9224C70.3608 48.0823 70.4861 48.3039 70.5261 48.5477C70.5244 48.8187 70.4179 49.0785 70.2289 49.2727C70.0398 49.4668 69.7829 49.5802 69.5121 49.5891Z" fill="#B5AEA0"/>
</g>
</g>
</g>
<defs>
<clipPath id="clip0_896_488">
<rect width="99" height="99" fill="white"/>
</clipPath>
</defs>
</svg>
