<svg width="98" height="98" viewBox="0 0 98 98" fill="none" xmlns="http://www.w3.org/2000/svg">
<g id="Asset 13" clip-path="url(#clip0_896_460)">
<g id="Layer 2">
<g id="Layer 1">
<path id="Vector" d="M49.0003 96.9827C75.5004 96.9827 96.983 75.5002 96.983 49C96.983 22.4999 75.5004 1.01733 49.0003 1.01733C22.5002 1.01733 1.01758 22.4999 1.01758 49C1.01758 75.5002 22.5002 96.9827 49.0003 96.9827Z" stroke="#B5AEA0" stroke-width="3" stroke-miterlimit="10"/>
<path id="Vector_2" d="M71.137 68.0168H65.0332V29.1966C65.032 29.007 64.9629 28.8241 64.8385 28.6811C64.7141 28.538 64.5426 28.4442 64.355 28.4167L43.6156 26.0836C43.514 26.0704 43.4107 26.0775 43.3118 26.1045C43.2129 26.1315 43.1204 26.1779 43.0396 26.241C42.9588 26.3041 42.8914 26.3827 42.8413 26.4721C42.7911 26.5615 42.7593 26.66 42.7475 26.7618C42.7442 26.7911 42.7442 26.8207 42.7475 26.85V28.3963H33.7817C33.5731 28.3963 33.373 28.4792 33.2254 28.6267C33.0779 28.7743 32.995 28.9744 32.995 29.183V68.0032H26.8912C26.6826 68.0032 26.4825 68.0861 26.3349 68.2337C26.1874 68.3812 26.1045 68.5813 26.1045 68.7899C26.1045 68.9986 26.1874 69.1987 26.3349 69.3462C26.4825 69.4938 26.6826 69.5767 26.8912 69.5767H42.7272V71.123C42.7263 71.2268 42.746 71.3299 42.7851 71.4261C42.8243 71.5223 42.8821 71.6099 42.9552 71.6836C43.0283 71.7574 43.1154 71.816 43.2113 71.8559C43.3072 71.8959 43.41 71.9165 43.5139 71.9165H43.6021L64.2533 69.5834H71.1438C71.3525 69.5834 71.5526 69.5006 71.7001 69.353C71.8476 69.2055 71.9305 69.0054 71.9305 68.7967C71.9305 68.5881 71.8476 68.388 71.7001 68.2404C71.5526 68.0929 71.3525 68.01 71.1438 68.01L71.137 68.0168ZM34.5888 29.9833H42.7272V32.0179H37.3762C37.1746 32.0266 36.9841 32.1124 36.844 32.2575C36.7039 32.4027 36.6249 32.5961 36.6234 32.7978V68.0168H34.5888V29.9833ZM38.1832 68.0168V33.5845H42.7272V68.0168H38.1832ZM44.3345 27.7452L63.453 29.9019V68.0982L44.3142 70.2616L44.3345 27.7452Z" fill="#B5AEA0"/>
<path id="Vector_3" d="M47.705 46.6603C47.2406 46.6603 46.7866 46.7981 46.4006 47.0562C46.0145 47.3144 45.7138 47.6813 45.5364 48.1104C45.359 48.5396 45.3129 49.0118 45.404 49.4672C45.4951 49.9225 45.7192 50.3406 46.0481 50.6685C46.3769 50.9964 46.7957 51.2194 47.2513 51.3092C47.707 51.3989 48.179 51.3515 48.6077 51.1729C49.0363 50.9942 49.4023 50.6924 49.6594 50.3056C49.9164 49.9188 50.0529 49.4645 50.0515 49.0001C50.0515 48.6922 49.9908 48.3874 49.8728 48.1031C49.7548 47.8188 49.5818 47.5606 49.3638 47.3432C49.1458 47.1258 48.8871 46.9536 48.6024 46.8364C48.3178 46.7193 48.0128 46.6594 47.705 46.6603ZM47.705 49.7664C47.5537 49.7651 47.4062 49.719 47.2811 49.634C47.1559 49.549 47.0588 49.4288 47.0018 49.2887C46.9448 49.1485 46.9306 48.9947 46.9609 48.8465C46.9913 48.6982 47.0648 48.5623 47.1722 48.4558C47.2797 48.3493 47.4162 48.277 47.5647 48.248C47.7132 48.219 47.8669 48.2345 48.0066 48.2927C48.1462 48.3509 48.2655 48.4491 48.3494 48.575C48.4333 48.7009 48.4781 48.8488 48.4781 49.0001C48.4781 49.1013 48.4581 49.2015 48.4191 49.2949C48.3802 49.3884 48.3231 49.4731 48.2513 49.5444C48.1794 49.6156 48.0941 49.672 48.0003 49.7101C47.9066 49.7482 47.8062 49.7673 47.705 49.7664Z" fill="#B5AEA0"/>
</g>
</g>
</g>
<defs>
<clipPath id="clip0_896_460">
<rect width="98" height="98" fill="white"/>
</clipPath>
</defs>
</svg>
