<svg width="104" height="104" viewBox="0 0 104 104" fill="none" xmlns="http://www.w3.org/2000/svg">
<g id="Asset 19" clip-path="url(#clip0_896_528)">
<g id="Layer 2">
<g id="Layer 1">
<path id="Vector" d="M51.9995 102.92C80.1221 102.92 102.92 80.1226 102.92 52C102.92 23.8774 80.1221 1.07959 51.9995 1.07959C23.8769 1.07959 1.0791 23.8774 1.0791 52C1.0791 80.1226 23.8769 102.92 51.9995 102.92Z" stroke="#B5AEA0" stroke-width="3" stroke-miterlimit="10"/>
<path id="Vector_2" d="M67.9992 65.6172C67.5408 65.6172 67.0927 65.7531 66.7116 66.0078C66.3305 66.2624 66.0335 66.6244 65.8581 67.0478C65.6826 67.4713 65.6367 67.9373 65.7262 68.3868C65.8156 68.8364 66.0363 69.2493 66.3604 69.5734C66.6845 69.8975 67.0975 70.1183 67.547 70.2077C67.9966 70.2971 68.4626 70.2512 68.886 70.0758C69.3095 69.9004 69.6714 69.6034 69.9261 69.2222C70.1807 68.8411 70.3167 68.3931 70.3167 67.9347C70.3167 67.3201 70.0725 66.7306 69.6379 66.296C69.2033 65.8614 68.6138 65.6172 67.9992 65.6172ZM67.9992 68.8775C67.8127 68.8775 67.6304 68.8222 67.4753 68.7186C67.3203 68.615 67.1994 68.4678 67.1281 68.2955C67.0567 68.1232 67.038 67.9337 67.0744 67.7508C67.1108 67.5679 67.2006 67.3999 67.3325 67.268C67.4643 67.1362 67.6323 67.0464 67.8152 67.01C67.9981 66.9736 68.1877 66.9923 68.36 67.0636C68.5322 67.135 68.6795 67.2558 68.7831 67.4109C68.8867 67.5659 68.942 67.7482 68.942 67.9347C68.942 68.1848 68.8427 68.4246 68.6658 68.6014C68.489 68.7782 68.2492 68.8775 67.9992 68.8775Z" fill="#B5AEA0"/>
<path id="Vector_3" d="M74.2392 67.8123C74.2205 66.9811 74.0313 66.1625 73.6834 65.4074C73.3356 64.6522 72.8363 63.9765 72.2167 63.422L58.4052 50.9636L70.6405 38.7283C70.7222 38.7009 70.8016 38.6672 70.878 38.6276L73.5194 37.2385C73.6987 37.1451 73.853 37.0101 73.9695 36.8448C74.0859 36.6795 74.1611 36.4887 74.1888 36.2885C74.2225 36.0895 74.2074 35.8853 74.1447 35.6935C74.082 35.5017 73.9736 35.3279 73.8289 35.1873L70.8493 32.2076C70.7076 32.0644 70.5337 31.957 70.3422 31.8944C70.1507 31.8319 69.947 31.8159 69.7481 31.8478C69.5483 31.8742 69.358 31.949 69.1937 32.0656C69.0294 32.1822 68.8961 32.3372 68.8052 32.5171L67.3874 35.1945C67.3452 35.2697 67.3114 35.3494 67.2866 35.432L61.5288 41.1898C61.4638 41.2529 61.412 41.3284 61.3767 41.4118C61.3414 41.4953 61.3231 41.585 61.3231 41.6756C61.3231 41.7662 61.3414 41.8559 61.3767 41.9394C61.412 42.0228 61.4638 42.0983 61.5288 42.1614C61.5913 42.2263 61.6662 42.2779 61.749 42.3131C61.8319 42.3484 61.921 42.3665 62.0111 42.3665C62.1011 42.3665 62.1902 42.3484 62.2731 42.3131C62.3559 42.2779 62.4308 42.2263 62.4933 42.1614L67.7832 36.8714L69.1723 38.2605L55.6415 51.8201L54.2596 50.3806L60.1614 44.4717C60.2299 44.336 60.2537 44.1822 60.2293 44.0321C60.205 43.8821 60.1338 43.7436 60.0259 43.6365C59.918 43.5295 59.779 43.4593 59.6288 43.4361C59.4786 43.4128 59.3249 43.4378 59.1897 43.5073L54.9074 47.8256L50.2436 43.6224C50.9055 41.7252 51.0111 39.6782 50.548 37.7229C50.0848 35.7676 49.0723 33.9855 47.6296 32.5867C46.187 31.188 44.3745 30.2309 42.4058 29.8283C40.4371 29.4258 38.3944 29.5946 36.5185 30.3148C36.4173 30.3614 36.3283 30.4308 36.2585 30.5177C36.1888 30.6045 36.1401 30.7064 36.1164 30.8152C36.0927 30.924 36.0945 31.0369 36.1219 31.1449C36.1492 31.2529 36.2012 31.3531 36.2738 31.4375L41.6645 36.8283C41.8214 36.986 41.9095 37.1995 41.9095 37.422C41.9095 37.6445 41.8214 37.858 41.6645 38.0158L38.145 41.5137C38.0673 41.5933 37.9744 41.6566 37.8718 41.6998C37.7692 41.743 37.659 41.7653 37.5477 41.7653C37.4363 41.7653 37.3262 41.743 37.2236 41.6998C37.121 41.6566 37.0281 41.5933 36.9503 41.5137L31.5884 36.1301C31.5043 36.0559 31.404 36.0023 31.2956 35.9736C31.1871 35.945 31.0735 35.942 30.9637 35.9651C30.854 35.9882 30.7511 36.0366 30.6634 36.1065C30.5756 36.1764 30.5054 36.2658 30.4584 36.3676C29.747 38.224 29.5754 40.2437 29.9632 42.1935C30.351 44.1433 31.2825 45.9436 32.6501 47.3864C34.0177 48.8292 35.7655 49.8558 37.6918 50.3474C39.618 50.839 41.644 50.7757 43.5358 50.1647L47.1344 54.1088C46.7196 54.9286 46.0141 55.5643 45.1556 55.8917C44.2972 56.2191 43.3475 56.2147 42.4922 55.8793C42.3704 55.8324 42.2377 55.8218 42.11 55.8486C41.9823 55.8754 41.8651 55.9386 41.7724 56.0305L33.3661 64.4296C32.2704 65.5234 31.6541 67.0076 31.6528 68.5558C31.6514 70.1039 32.2651 71.5892 33.3589 72.6849C34.4526 73.7805 35.9368 74.3968 37.485 74.3982C39.0332 74.3995 40.5184 73.7858 41.6141 72.6921L50.0133 64.2785C50.1021 64.1839 50.1637 64.0671 50.1915 63.9404C50.2194 63.8138 50.2125 63.6819 50.1716 63.5588C49.9098 62.888 49.849 62.1554 49.9968 61.4506C50.1445 60.7459 50.4944 60.0994 51.0036 59.5902C51.5128 59.081 52.1592 58.7312 52.864 58.5834C53.5688 58.4357 54.3013 58.4964 54.9722 58.7582C55.0953 58.7991 55.2271 58.806 55.3538 58.7782C55.4805 58.7503 55.5973 58.6887 55.6919 58.5999L57.2753 57.0165C57.5147 56.782 57.7048 56.502 57.8347 56.193C57.9645 55.8841 58.0314 55.5523 58.0314 55.2172C58.0314 54.8821 57.9645 54.5503 57.8347 54.2413C57.7048 53.9324 57.5147 53.6524 57.2753 53.4179L56.5987 52.7413L57.4192 51.9209L71.2955 64.444C71.7744 64.8755 72.1605 65.3999 72.4303 65.9853C72.7 66.5707 72.8478 67.2049 72.8647 67.8493C72.8815 68.4936 72.767 69.1347 72.5282 69.7334C72.2893 70.3321 71.9311 70.8759 71.4754 71.3318C71.0213 71.7855 70.48 72.1424 69.8841 72.3811C69.2883 72.6197 68.6502 72.7352 68.0085 72.7204C67.3668 72.7056 66.7347 72.5609 66.1505 72.295C65.5662 72.0291 65.0419 71.6476 64.6093 71.1735L54.3028 59.9026C54.1702 59.8119 54.0111 59.7682 53.8508 59.7784C53.6905 59.7887 53.5382 59.8522 53.4182 59.959C53.2982 60.0657 53.2173 60.2096 53.1885 60.3676C53.1597 60.5257 53.1846 60.6888 53.2592 60.831L63.5657 72.1019C64.1233 72.7238 64.8025 73.2247 65.5613 73.5738C66.3202 73.9229 67.1425 74.1127 67.9776 74.1315H68.1215C68.9387 74.1308 69.7475 73.9666 70.5003 73.6485C71.2531 73.3304 71.9346 72.8649 72.5047 72.2794C73.0748 71.6939 73.5219 71.0002 73.8198 70.2392C74.1177 69.4782 74.2603 68.6653 74.2392 67.8483V67.8123ZM68.6253 35.7775L69.9424 33.2872L72.7565 36.1013L70.2663 37.4256L68.6253 35.7775ZM44.2483 48.9412C44.1589 48.8444 44.0431 48.7758 43.9153 48.7438C43.7874 48.7118 43.653 48.7179 43.5286 48.7613C41.9659 49.3421 40.2745 49.4855 38.6364 49.1762C36.9983 48.8668 35.4756 48.1164 34.2324 47.0058C32.9892 45.8951 32.0726 44.4663 31.5813 42.8733C31.09 41.2802 31.0427 39.5834 31.4444 37.9654L35.9859 42.4637C36.4026 42.8786 36.9668 43.1115 37.5549 43.1115C38.1429 43.1115 38.7071 42.8786 39.1239 42.4637L42.6217 38.9658C43.0362 38.5503 43.2689 37.9873 43.2689 37.4004C43.2689 36.8135 43.0362 36.2506 42.6217 35.835L38.0299 31.2432C39.6709 30.8188 41.3974 30.8579 43.0175 31.3562C44.6375 31.8544 46.0876 32.7924 47.2065 34.0656C48.3253 35.3388 49.069 36.8975 49.3549 38.5682C49.6408 40.2388 49.4576 41.9561 48.8257 43.5289C48.7779 43.6592 48.7688 43.8005 48.7994 43.9359C48.8301 44.0712 48.8992 44.1948 48.9985 44.2918L53.9574 48.7613L53.3096 49.409L52.6331 48.7325C52.3975 48.4949 52.1173 48.3062 51.8084 48.1775C51.4996 48.0488 51.1683 47.9825 50.8338 47.9825C50.4992 47.9825 50.1679 48.0488 49.8591 48.1775C49.5503 48.3062 49.27 48.4949 49.0344 48.7325L47.4511 50.3159C47.3623 50.4104 47.3007 50.5272 47.2728 50.6539C47.2449 50.7806 47.2518 50.9125 47.2927 51.0356C47.4733 51.4934 47.559 51.9831 47.5446 52.475L44.2483 48.9412ZM56.318 56.0593L55.0369 57.3476C54.1594 57.0839 53.2266 57.0645 52.3388 57.2915C51.4511 57.5185 50.6421 57.9833 49.9989 58.6359C49.3566 59.2783 48.8983 60.0813 48.6717 60.961C48.4451 61.8407 48.4586 62.7651 48.7106 63.6379L40.6425 71.706C39.8064 72.5421 38.6725 73.0118 37.4901 73.0118C36.3077 73.0118 35.1738 72.5421 34.3377 71.706C33.5016 70.87 33.0319 69.736 33.0319 68.5537C33.0319 67.3713 33.5016 66.2373 34.3377 65.4013L42.4634 57.3044C43.3361 57.5561 44.2604 57.5693 45.14 57.3425C46.0195 57.1158 46.8222 56.6574 47.4645 56.0151C48.1068 55.3729 48.5652 54.5701 48.7919 53.6906C49.0186 52.811 49.0055 51.8867 48.7538 51.014L50.0421 49.7257C50.2589 49.5121 50.551 49.3923 50.8553 49.3923C51.1597 49.3923 51.4518 49.5121 51.6686 49.7257L52.8346 50.8845L55.1593 53.2595L56.318 54.4183C56.5308 54.6326 56.6501 54.9224 56.6501 55.2244C56.6501 55.5264 56.5308 55.8161 56.318 56.0305V56.0593Z" fill="#B5AEA0"/>
<path id="Vector_4" d="M43.8092 59.8954C43.7461 59.8303 43.6706 59.7786 43.5872 59.7432C43.5037 59.7079 43.414 59.6897 43.3234 59.6897C43.2328 59.6897 43.1431 59.7079 43.0596 59.7432C42.9762 59.7786 42.9007 59.8303 42.8376 59.8954L36.3601 66.3729C36.2792 66.4739 36.227 66.5949 36.2091 66.7231C36.1912 66.8513 36.2081 66.982 36.2582 67.1013C36.3083 67.2207 36.3897 67.3243 36.4938 67.4013C36.5978 67.4783 36.7207 67.5258 36.8495 67.5389C36.9393 67.5397 37.0284 67.5223 37.1113 67.4877C37.1942 67.453 37.2692 67.4019 37.3317 67.3373L43.8092 60.8598C43.9286 60.7276 43.9946 60.5558 43.9946 60.3776C43.9946 60.1995 43.9286 60.0276 43.8092 59.8954Z" fill="#B5AEA0"/>
<path id="Vector_5" d="M46.213 62.2921C46.0804 62.1707 45.907 62.1034 45.7272 62.1034C45.5474 62.1034 45.3741 62.1707 45.2414 62.2921L38.7639 68.7696C38.6425 68.9023 38.5752 69.0756 38.5752 69.2554C38.5752 69.4352 38.6425 69.6086 38.7639 69.7412C38.8966 69.8626 39.0699 69.9299 39.2497 69.9299C39.4295 69.9299 39.6028 69.8626 39.7355 69.7412L46.213 63.2637C46.3344 63.131 46.4017 62.9577 46.4017 62.7779C46.4017 62.5981 46.3344 62.4248 46.213 62.2921Z" fill="#B5AEA0"/>
</g>
</g>
</g>
<defs>
<clipPath id="clip0_896_528">
<rect width="104" height="104" fill="white"/>
</clipPath>
</defs>
</svg>
