<svg width="99" height="99" viewBox="0 0 99 99" fill="none" xmlns="http://www.w3.org/2000/svg">
<g id="Asset 15" clip-path="url(#clip0_896_450)">
<g id="Layer 2">
<g id="Layer 1">
<path id="Vector" d="M49.4723 97.9446C76.2428 97.9446 97.9446 76.2428 97.9446 49.4723C97.9446 22.7018 76.2428 1 49.4723 1C22.7018 1 1 22.7018 1 49.4723C1 76.2428 22.7018 97.9446 49.4723 97.9446Z" stroke="#B5AEA0" stroke-width="3" stroke-miterlimit="10"/>
</g>
</g>
<g id="Group">
<path id="Vector_2" d="M23 25.7708C23 25.3011 23.1866 24.8507 23.5186 24.5186C23.8507 24.1866 24.3011 24 24.7708 24H74.3521C74.8218 24 75.2722 24.1866 75.6043 24.5186C75.9363 24.8507 76.1229 25.3011 76.1229 25.7708V66.4983C76.1229 66.7309 76.0771 66.9611 75.9881 67.176C75.8991 67.3908 75.7687 67.586 75.6043 67.7504C75.4398 67.9149 75.2446 68.0453 75.0298 68.1343C74.8149 68.2233 74.5847 68.2691 74.3521 68.2691H62.1339C61.8917 68.2687 61.6521 68.318 61.4297 68.414C61.2074 68.5099 61.0071 68.6505 60.8412 68.8269L50.8512 79.4426C50.6856 79.6186 50.4858 79.7588 50.264 79.8547C50.0422 79.9505 49.8031 80 49.5615 80C49.3198 80 49.0807 79.9505 48.8589 79.8547C48.6371 79.7588 48.4373 79.6186 48.2717 79.4426L38.2817 68.8269C38.1158 68.6505 37.9155 68.5099 37.6932 68.414C37.4708 68.318 37.2312 68.2687 36.989 68.2691H24.7708C24.3011 68.2691 23.8507 68.0825 23.5186 67.7504C23.1866 67.4184 23 66.968 23 66.4983V25.7708Z" stroke="#B5AEA0" stroke-width="3"/>
<path id="Vector_3" d="M49.5619 35.8051L53.7675 43.4046L61.367 47.6101L53.7675 51.8157L49.5619 59.4152L45.3564 51.8157L37.7568 47.6101L45.3564 43.4046L49.5619 35.8051Z" stroke="#B5AEA0" stroke-width="3" stroke-linecap="round" stroke-linejoin="round"/>
</g>
</g>
<defs>
<clipPath id="clip0_896_450">
<rect width="99" height="99" fill="white"/>
</clipPath>
</defs>
</svg>
