<svg width="99" height="99" viewBox="0 0 99 99" fill="none" xmlns="http://www.w3.org/2000/svg">
<g id="Asset 15" clip-path="url(#clip0_896_512)">
<g id="Layer 2">
<g id="Layer 1">
<path id="Vector" d="M49.4997 97.9724C76.2702 97.9724 97.972 76.2706 97.972 49.5C97.972 22.7295 76.2702 1.02771 49.4997 1.02771C22.7291 1.02771 1.02734 22.7295 1.02734 49.5C1.02734 76.2706 22.7291 97.9724 49.4997 97.9724Z" stroke="#B5AEA0" stroke-width="3" stroke-miterlimit="10"/>
<path id="Vector_2" d="M35.8657 30.4811H33.9884C34.2693 28.3846 35.4272 28.2818 35.9616 28.2339C36.2178 28.21 36.456 28.0915 36.6296 27.9015C36.8031 27.7115 36.8996 27.4636 36.9002 27.2062V24.1163C36.8985 23.9766 36.8687 23.8386 36.8126 23.7106C36.7565 23.5827 36.6752 23.4673 36.5735 23.3714C36.4719 23.2755 36.352 23.2011 36.2209 23.1525C36.0899 23.1039 35.9505 23.0822 35.8109 23.0886C32.5428 23.2942 28.6582 24.9179 28.6582 31.7212V37.0925C28.6582 37.5231 28.8293 37.9362 29.1338 38.2407C29.4383 38.5452 29.8513 38.7162 30.2819 38.7162H35.8657C36.2963 38.7162 36.7093 38.5452 37.0138 38.2407C37.3183 37.9362 37.4894 37.5231 37.4894 37.0925V32.1048C37.4894 31.6742 37.3183 31.2612 37.0138 30.9567C36.7093 30.6522 36.2963 30.4811 35.8657 30.4811ZM35.4272 36.6472H30.7204V31.7212C30.7204 26.9733 32.8306 25.651 34.8311 25.2742V26.3567C33.4609 26.7814 31.8646 28.0215 31.8646 31.5088C31.8645 31.7808 31.9717 32.0419 32.1627 32.2355C32.3538 32.4291 32.6134 32.5397 32.8854 32.5433H35.4203L35.4272 36.6472Z" fill="#B5AEA0"/>
<path id="Vector_3" d="M46.4165 30.4811H44.5324C44.8133 28.3846 45.9711 28.2818 46.4987 28.2339C46.7555 28.2115 46.9946 28.0935 47.1684 27.9031C47.3423 27.7127 47.4383 27.464 47.4373 27.2062V24.1163C47.4366 23.9763 47.4074 23.8379 47.3516 23.7094C47.2958 23.581 47.2145 23.4653 47.1127 23.3692C47.0108 23.2731 46.8905 23.1987 46.7591 23.1505C46.6276 23.1022 46.4878 23.0812 46.3479 23.0886C43.0936 23.2941 39.209 24.9179 39.209 31.7211V37.0925C39.209 37.5231 39.3801 37.9361 39.6846 38.2406C39.9891 38.5452 40.4021 38.7162 40.8327 38.7162H46.4165C46.8471 38.7162 47.2601 38.5452 47.5646 38.2406C47.8691 37.9361 48.0402 37.5231 48.0402 37.0925V32.1048C48.0402 31.6742 47.8691 31.2612 47.5646 30.9567C47.2601 30.6521 46.8471 30.4811 46.4165 30.4811ZM45.978 36.6472H41.2712V31.7211C41.2712 26.9732 43.3814 25.651 45.3819 25.2741V26.3566C44.0117 26.7814 42.4085 28.0215 42.4085 31.5088C42.4103 31.7826 42.5199 32.0447 42.7135 32.2383C42.9071 32.4319 43.1692 32.5415 43.443 32.5433H45.978V36.654V36.6472Z" fill="#B5AEA0"/>
<path id="Vector_4" d="M52.5001 31.4265C52.405 31.3294 52.2915 31.2522 52.1662 31.1995C52.0409 31.1468 51.9064 31.1196 51.7704 31.1196C51.6345 31.1196 51.4999 31.1468 51.3747 31.1995C51.2494 31.2522 51.1358 31.3294 51.0408 31.4265C50.8483 31.6192 50.7402 31.8804 50.7402 32.1528C50.7402 32.4251 50.8483 32.6863 51.0408 32.879C51.1358 32.9761 51.2494 33.0533 51.3747 33.106C51.4999 33.1587 51.6345 33.1859 51.7704 33.1859C51.9064 33.1859 52.0409 33.1587 52.1662 33.106C52.2915 33.0533 52.405 32.9761 52.5001 32.879C52.6925 32.6863 52.8006 32.4251 52.8006 32.1528C52.8006 31.8804 52.6925 31.6192 52.5001 31.4265Z" fill="#B5AEA0"/>
<path id="Vector_5" d="M57.5501 31.1182H56.2484C55.9963 31.1474 55.7637 31.2682 55.5948 31.4577C55.426 31.6472 55.3327 31.8921 55.3327 32.1459C55.3327 32.3997 55.426 32.6446 55.5948 32.8341C55.7637 33.0236 55.9963 33.1444 56.2484 33.1736H57.5501C61.57 33.1809 65.4451 34.6755 68.4289 37.3693C71.4127 40.0632 73.2942 43.7658 73.711 47.7641C74.1279 51.7623 73.0506 55.7734 70.6866 59.0248C68.3226 62.2762 64.8392 64.5379 60.9072 65.3743C60.6757 65.4228 60.4678 65.5493 60.3182 65.7326C60.1685 65.9158 60.0863 66.1448 60.085 66.3814V72.3762L53.734 66.0251C53.5384 65.856 53.2868 65.7656 53.0283 65.7716H41.4224C38.5844 65.7724 35.7955 65.0314 33.3321 63.6222C30.8686 62.2131 28.8162 60.1846 27.3783 57.7379C25.9403 55.2912 25.1667 52.5112 25.1341 49.6734C25.1015 46.8356 25.811 44.0386 27.1924 41.5595C27.2581 41.4412 27.2998 41.3111 27.3152 41.1766C27.3306 41.0422 27.3194 40.906 27.2822 40.7759C27.2449 40.6458 27.1825 40.5243 27.0983 40.4184C27.0141 40.3124 26.9099 40.2241 26.7916 40.1584C26.6733 40.0927 26.5432 40.051 26.4087 40.0356C26.2743 40.0202 26.1381 40.0314 26.008 40.0686C25.8779 40.1058 25.7564 40.1683 25.6505 40.2525C25.5445 40.3367 25.4562 40.4409 25.3905 40.5592C23.8346 43.3516 23.0355 46.5022 23.0725 49.6986C23.1095 52.8951 23.9813 56.0263 25.6015 58.782C27.2216 61.5376 29.5339 63.8219 32.309 65.4085C35.0841 66.9951 38.2257 67.8288 41.4224 67.827H52.6035L60.4139 75.6374C60.6079 75.8331 60.8715 75.944 61.147 75.9457C61.4208 75.9439 61.6829 75.8343 61.8765 75.6407C62.0702 75.4471 62.1797 75.185 62.1815 74.9112V67.2173C66.5077 66.1003 70.2774 63.4426 72.7828 59.7431C75.2882 56.0435 76.3569 51.5566 75.7883 47.1249C75.2197 42.6932 73.053 38.6214 69.6948 35.6742C66.3367 32.7269 62.0181 31.1069 57.5501 31.1182Z" fill="#B5AEA0"/>
<path id="Vector_6" d="M62.2022 41.4019H36.8048C36.6598 41.3851 36.513 41.3992 36.3739 41.4432C36.2348 41.4872 36.1066 41.5601 35.9977 41.6571C35.8888 41.7542 35.8016 41.8732 35.7419 42.0063C35.6822 42.1394 35.6514 42.2837 35.6514 42.4296C35.6514 42.5754 35.6822 42.7197 35.7419 42.8528C35.8016 42.9859 35.8888 43.1049 35.9977 43.202C36.1066 43.299 36.2348 43.3719 36.3739 43.4159C36.513 43.4599 36.6598 43.474 36.8048 43.4572H62.2022C62.4543 43.4281 62.6869 43.3073 62.8557 43.1178C63.0246 42.9283 63.1179 42.6833 63.1179 42.4296C63.1179 42.1758 63.0246 41.9308 62.8557 41.7413C62.6869 41.5518 62.4543 41.431 62.2022 41.4019Z" fill="#B5AEA0"/>
<path id="Vector_7" d="M62.2022 46.9035H36.8048C36.6598 46.8867 36.513 46.9008 36.3739 46.9448C36.2348 46.9888 36.1066 47.0617 35.9977 47.1587C35.8888 47.2558 35.8016 47.3748 35.7419 47.5079C35.6822 47.641 35.6514 47.7853 35.6514 47.9311C35.6514 48.077 35.6822 48.2213 35.7419 48.3544C35.8016 48.4875 35.8888 48.6065 35.9977 48.7035C36.1066 48.8006 36.2348 48.8735 36.3739 48.9175C36.513 48.9615 36.6598 48.9756 36.8048 48.9588H62.2022C62.4543 48.9297 62.6869 48.8088 62.8557 48.6194C63.0246 48.4299 63.1179 48.1849 63.1179 47.9311C63.1179 47.6773 63.0246 47.4324 62.8557 47.2429C62.6869 47.0534 62.4543 46.9326 62.2022 46.9035Z" fill="#B5AEA0"/>
<path id="Vector_8" d="M62.2022 52.4049H36.8048C36.6598 52.3882 36.513 52.4022 36.3739 52.4462C36.2348 52.4902 36.1066 52.5631 35.9977 52.6602C35.8888 52.7572 35.8016 52.8762 35.7419 53.0094C35.6822 53.1425 35.6514 53.2867 35.6514 53.4326C35.6514 53.5785 35.6822 53.7227 35.7419 53.8558C35.8016 53.989 35.8888 54.108 35.9977 54.205C36.1066 54.3021 36.2348 54.375 36.3739 54.419C36.513 54.463 36.6598 54.477 36.8048 54.4603H62.2022C62.4543 54.4311 62.6869 54.3103 62.8557 54.1208C63.0246 53.9313 63.1179 53.6864 63.1179 53.4326C63.1179 53.1788 63.0246 52.9339 62.8557 52.7444C62.6869 52.5549 62.4543 52.4341 62.2022 52.4049Z" fill="#B5AEA0"/>
<path id="Vector_9" d="M62.2018 57.9065H48.6432C48.3911 57.9357 48.1585 58.0565 47.9897 58.246C47.8208 58.4354 47.7275 58.6804 47.7275 58.9342C47.7275 59.188 47.8208 59.4329 47.9897 59.6224C48.1585 59.8119 48.3911 59.9327 48.6432 59.9619H62.2018C62.4539 59.9327 62.6865 59.8119 62.8553 59.6224C63.0241 59.4329 63.1174 59.188 63.1174 58.9342C63.1174 58.6804 63.0241 58.4354 62.8553 58.246C62.6865 58.0565 62.4539 57.9357 62.2018 57.9065Z" fill="#B5AEA0"/>
<path id="Vector_10" d="M42.8536 57.9065C42.7087 57.8897 42.5618 57.9038 42.4227 57.9478C42.2837 57.9918 42.1554 58.0647 42.0465 58.1618C41.9376 58.2588 41.8504 58.3778 41.7907 58.5109C41.7311 58.6441 41.7002 58.7883 41.7002 58.9342C41.7002 59.0801 41.7311 59.2243 41.7907 59.3574C41.8504 59.4906 41.9376 59.6095 42.0465 59.7066C42.1554 59.8036 42.2837 59.8766 42.4227 59.9206C42.5618 59.9646 42.7087 59.9786 42.8536 59.9619C42.9985 59.9786 43.1453 59.9646 43.2844 59.9206C43.4235 59.8766 43.5518 59.8036 43.6607 59.7066C43.7696 59.6095 43.8568 59.4906 43.9165 59.3574C43.9761 59.2243 44.007 59.0801 44.007 58.9342C44.007 58.7883 43.9761 58.6441 43.9165 58.5109C43.8568 58.3778 43.7696 58.2588 43.6607 58.1618C43.5518 58.0647 43.4235 57.9918 43.2844 57.9478C43.1453 57.9038 42.9985 57.8897 42.8536 57.9065Z" fill="#B5AEA0"/>
</g>
</g>
</g>
<defs>
<clipPath id="clip0_896_512">
<rect width="99" height="99" fill="white"/>
</clipPath>
</defs>
</svg>
