<svg width="45" height="46" viewBox="0 0 45 46" fill="none" xmlns="http://www.w3.org/2000/svg">
<g id="Group 1171274976">
<path id="Vector" d="M22.5 46C34.9264 46 45 35.7025 45 23C45 10.2975 34.9264 0 22.5 0C10.0736 0 0 10.2975 0 23C0 35.7025 10.0736 46 22.5 46Z" fill="white"/>
<path id="Vector_2" d="M14 12.625C14 11.6636 14.3582 10.7416 14.9958 10.0617C15.6335 9.38192 16.4983 9 17.4 9H27.6C28.5017 9 29.3665 9.38192 30.0042 10.0617C30.6418 10.7416 31 11.6636 31 12.625V34.375C31 35.3364 30.6418 36.2584 30.0042 36.9383C29.3665 37.6181 28.5017 38 27.6 38H17.4C16.4983 38 15.6335 37.6181 14.9958 36.9383C14.3582 36.2584 14 35.3364 14 34.375V12.625ZM24.2 32.5625C24.2 32.0818 24.0209 31.6208 23.7021 31.2809C23.3833 30.941 22.9509 30.75 22.5 30.75C22.0491 30.75 21.6167 30.941 21.2979 31.2809C20.9791 31.6208 20.8 32.0818 20.8 32.5625C20.8 33.0432 20.9791 33.5042 21.2979 33.8441C21.6167 34.184 22.0491 34.375 22.5 34.375C22.9509 34.375 23.3833 34.184 23.7021 33.8441C24.0209 33.5042 24.2 33.0432 24.2 32.5625Z" fill="#9E8763"/>
</g>
</svg>
