<svg width="46" height="46" viewBox="0 0 46 46" fill="none" xmlns="http://www.w3.org/2000/svg">
<path d="M34.106 28.4141V15.0152C34.106 13.9192 33.2222 13 32.0909 13C30.9596 13 30.0757 13.8838 30.0757 15.0152V28.4141C30.0757 29.4394 30.8535 30.2879 31.8434 30.4293V33.5758H23.7828V30.4293C24.7727 30.3232 25.5505 29.4747 25.5505 28.4141V15.0152C25.5505 13.9192 24.6667 13 23.5353 13C22.4394 13 21.5202 13.8838 21.5202 15.0152V28.4141C21.5202 29.4394 22.298 30.2879 23.2879 30.4293V33.5758H15.2626V30.4293C16.2525 30.3232 17.0303 29.4747 17.0303 28.4141V15.0152C17.0303 13.9192 16.1465 13 15.0151 13C13.8838 13 13 13.8838 13 15.0152V28.4141C13 29.4394 13.7778 30.2879 14.7677 30.4293V33.5758H13.2121C13.1061 33.5758 13 33.6818 13 33.7879C13 33.8939 13.1061 34 13.2121 34H33.7172C33.8232 34 33.9293 33.8939 33.9293 33.7879C33.9293 33.6818 33.8232 33.5758 33.7172 33.5758H32.1616V30.4293C33.3283 30.2879 34.106 29.404 34.106 28.4141Z" fill="#B5AEA0"/>
<path d="M23 44C34.598 44 44 34.598 44 23C44 11.402 34.598 2 23 2C11.402 2 2 11.402 2 23C2 34.598 11.402 44 23 44Z" stroke="#B5AEA0" stroke-width="3" stroke-miterlimit="10"/>
</svg>
