<svg width="46" height="46" viewBox="0 0 46 46" fill="none" xmlns="http://www.w3.org/2000/svg">
<path d="M23 44C34.598 44 44 34.598 44 23C44 11.402 34.598 2 23 2C11.402 2 2 11.402 2 23C2 34.598 11.402 44 23 44Z" stroke="#B5AEA0" stroke-width="3" stroke-miterlimit="10"/>
<path d="M23.017 34.7586C29.8539 34.7586 35.3963 29.2162 35.3963 22.3793C35.3963 15.5424 29.8539 10 23.017 10C16.1801 10 10.6377 15.5424 10.6377 22.3793C10.6377 29.2162 16.1801 34.7586 23.017 34.7586Z" fill="#B5AEA0"/>
<path d="M27.448 24.5517C27.448 26.9999 25.4652 28.9827 23.017 28.9827C20.5687 28.9827 18.5859 26.9999 18.5859 24.5517C18.5859 20.1551 22.9997 15.7586 23.017 15.7758C24.6549 18.0172 27.448 20.5689 27.448 24.5517Z" fill="white"/>
<path d="M15.8793 35.6379C11.0172 33 8 27.931 8 22.3965C8 20.7586 8.25862 19.1379 8.77586 17.5862L9.25862 17.7586C8.75862 19.2414 8.5 20.8103 8.5 22.3965C8.5 27.7241 11.4138 32.6207 16.1034 35.1724L15.8793 35.6379Z" fill="#B5AEA0"/>
<path d="M30.6375 35.3966L30.3789 34.9483C34.8272 32.3448 37.5858 27.5345 37.5858 22.3966C37.5858 20.6724 37.2927 18.9828 36.6893 17.3793L37.172 17.2069C37.7755 18.8621 38.0858 20.6207 38.0858 22.3966C38.103 27.7242 35.241 32.7069 30.6375 35.3966Z" fill="#B5AEA0"/>
<path d="M24.8446 27.2241L24.5859 26.7758C25.3446 26.3275 25.8101 25.5172 25.8101 24.6379C25.8101 24.3448 25.7584 24.0517 25.6549 23.7758L26.1377 23.6034C26.2584 23.931 26.3273 24.2758 26.3273 24.6379C26.3273 25.6896 25.7584 26.6896 24.8446 27.2241Z" fill="#B5AEA0"/>
<path d="M16.4621 21.2245C17.1477 20.9389 17.472 20.1516 17.1864 19.466C16.9009 18.7804 16.1135 18.4561 15.4279 18.7417C14.7423 19.0273 14.418 19.8146 14.7036 20.5002C14.9892 21.1858 15.7765 21.5101 16.4621 21.2245Z" fill="white"/>
<path d="M28.2071 14.4655C27.8967 14.6896 27.7071 14.8793 27.4829 15.1896C27.2588 14.8793 27.0691 14.6896 26.7588 14.4655C27.0691 14.2413 27.2588 14.0517 27.4829 13.7413C27.7071 14.0517 27.8967 14.2413 28.2071 14.4655Z" fill="white"/>
<path d="M28.6201 30.6034C28.3098 30.8276 28.1202 31.0172 27.896 31.3275C27.6719 31.0172 27.4822 30.8276 27.1719 30.6034C27.4822 30.3793 27.6719 30.1896 27.896 29.8793C28.1202 30.1896 28.3098 30.3793 28.6201 30.6034Z" fill="white"/>
<path d="M15.2588 23.7241C14.9485 23.9483 14.7588 24.1379 14.5347 24.4483C14.3105 24.1379 14.1209 23.9483 13.8105 23.7241C14.1209 23.5 14.3105 23.3103 14.5347 23C14.7588 23.3103 14.9485 23.5 15.2588 23.7241Z" fill="white"/>
<path d="M30.9179 18.5952C31.4835 18.0297 31.4835 17.1127 30.9179 16.5471C30.3524 15.9815 29.4354 15.9815 28.8698 16.5471C28.3042 17.1127 28.3042 18.0297 28.8698 18.5952C29.4354 19.1608 30.3524 19.1608 30.9179 18.5952Z" fill="white"/>
</svg>
