<svg width="46" height="46" viewBox="0 0 46 46" fill="none" xmlns="http://www.w3.org/2000/svg">
<path d="M23 44C34.598 44 44 34.598 44 23C44 11.402 34.598 2 23 2C11.402 2 2 11.402 2 23C2 34.598 11.402 44 23 44Z" stroke="#B5AEA0" stroke-width="3" stroke-miterlimit="10"/>
<path d="M21.9286 32.7599C22.6196 32.7607 23.2937 32.5484 23.8572 32.1524C24.4207 31.7565 24.8456 31.1965 25.0729 30.5504H18.7843C19.0115 31.1965 19.4364 31.7565 20 32.1524C20.5635 32.5484 21.2376 32.7607 21.9286 32.7599ZM31.9706 28.3409V26.1314C31.9709 25.9862 31.9421 25.8425 31.886 25.7085C31.8299 25.5744 31.7475 25.4527 31.6437 25.3503L29.7391 23.4645V19.5028C29.7391 15.9488 27.3011 12.955 23.9984 12.0546C23.6714 11.2393 22.8725 10.6648 21.9286 10.6648C20.9846 10.6648 20.1857 11.2393 19.8588 12.0546C18.3826 12.4567 17.1106 13.3007 16.1254 14.4044L12.6754 10.9885L11.0977 12.5506L31.1818 32.4362L32.7595 30.8741L31.2398 29.3694C31.4534 29.2928 31.6381 29.1531 31.7689 28.9691C31.8996 28.7851 31.97 28.5658 31.9706 28.3409ZM21.9286 13.9791C25.0048 13.9791 27.5075 16.457 27.5075 19.5028V23.9218C27.5075 24.2157 27.6247 24.4963 27.8344 24.7029L29.7391 26.5887V27.2361H29.0852L17.6964 15.9599C18.7151 14.7579 20.2225 13.9791 21.9286 13.9791ZM16.0227 24.7029C16.1265 24.6005 16.2089 24.4788 16.265 24.3447C16.3211 24.2107 16.3499 24.0669 16.3497 23.9218V20.7413L14.194 18.6069C14.1594 18.9029 14.1181 19.1979 14.1181 19.5028V23.4645L12.2134 25.3503C12.1096 25.4527 12.0273 25.5744 11.9712 25.7085C11.9151 25.8425 11.8863 25.9862 11.8865 26.1314V28.3409C11.8865 28.6339 12.0041 28.9149 12.2133 29.122C12.4226 29.3292 12.7064 29.4456 13.0023 29.4456H25.1409L22.9094 27.2361H14.1181V26.5887L16.0227 24.7029Z" fill="#B5AEA0"/>
</svg>
