<svg width="46" height="46" viewBox="0 0 46 46" fill="none" xmlns="http://www.w3.org/2000/svg">
<path d="M23.3453 24.2212C22.4346 24.2212 21.7061 24.9497 21.7061 25.8604C21.7061 26.7711 22.4346 27.4996 23.3453 27.4996C24.2559 27.4996 24.9845 26.7711 24.9845 25.8604C25.0209 24.9497 24.2924 24.2212 23.3453 24.2212Z" fill="#B5AEA0"/>
<path d="M23.3448 21.4893C20.9407 21.4893 18.9736 23.4199 18.9736 25.8605C18.9736 28.3011 20.9771 30.1952 23.3448 30.1952C25.749 30.1952 27.716 28.2646 27.716 25.824C27.7525 23.3835 25.749 21.4893 23.3448 21.4893ZM23.3448 27.9732C22.2156 27.9732 21.2321 27.0261 21.2321 25.8605C21.2321 24.7312 22.1792 23.7477 23.3448 23.7477C24.4741 23.7477 25.4576 24.6948 25.4576 25.8605C25.4576 26.9897 24.5105 27.9732 23.3448 27.9732Z" fill="#B5AEA0"/>
<path d="M15.7684 25.8603C15.7684 22.5819 17.8812 19.7771 20.7589 18.7207H20.5768H13V33H20.7589C17.8448 31.9072 15.7684 29.1023 15.7684 25.8603Z" fill="#B5AEA0"/>
<path d="M30.4844 25.8603C30.4844 21.9263 27.2788 18.7207 23.3447 18.7207C19.4106 18.7207 16.2051 21.9263 16.2051 25.8603C16.2051 29.7944 19.4106 33 23.3447 33C27.2788 32.9635 30.4844 29.758 30.4844 25.8603ZM23.3447 30.6687C20.6856 30.6687 18.5364 28.4831 18.5364 25.8603C18.5364 23.2012 20.722 21.052 23.3447 21.052C26.0039 21.052 28.153 23.2012 28.153 25.8603C28.1895 28.5559 26.0039 30.6687 23.3447 30.6687Z" fill="#B5AEA0"/>
<path d="M26.1135 18.7207H25.9678C28.8819 19.7771 30.9582 22.5819 30.9582 25.8603C30.9582 29.1387 28.8455 31.9436 25.9678 33H33.7267V18.7207H26.1135Z" fill="#B5AEA0"/>
<path d="M19.3382 15.6609L20.7953 14.5317V18.2472H23.1266C23.1266 18.2108 23.0901 18.1743 23.0901 18.1379V16.3166C23.0901 16.2073 23.1994 16.098 23.3087 16.098C23.418 16.098 23.5273 16.2073 23.5273 16.3166V18.1379C23.5273 18.1743 23.5273 18.2108 23.4908 18.2472H25.8221V14.5317L27.2792 15.6609C27.3156 15.6973 27.3521 15.6973 27.4249 15.6973C27.4978 15.6973 27.5706 15.6609 27.6071 15.6245C27.6799 15.5152 27.6799 15.3695 27.5706 15.2966L23.418 12.0546C23.3451 11.9818 23.2358 11.9818 23.1266 12.0546L18.9739 15.2966C18.8646 15.3695 18.8646 15.5152 18.9375 15.6245C19.1196 15.7337 19.2653 15.7337 19.3382 15.6609Z" fill="#B5AEA0"/>
<path d="M23 44C34.598 44 44 34.598 44 23C44 11.402 34.598 2 23 2C11.402 2 2 11.402 2 23C2 34.598 11.402 44 23 44Z" stroke="#B5AEA0" stroke-width="3" stroke-miterlimit="10"/>
</svg>
