<svg width="46" height="46" viewBox="0 0 46 46" fill="none" xmlns="http://www.w3.org/2000/svg">
<path d="M23 44C34.598 44 44 34.598 44 23C44 11.402 34.598 2 23 2C11.402 2 2 11.402 2 23C2 34.598 11.402 44 23 44Z" stroke="#B5AEA0" stroke-width="3" stroke-miterlimit="10"/>
<path d="M15.2188 31.2041H19.268V23.8802V23.2112H15.2188V31.2041Z" fill="#B5AEA0"/>
<path d="M13.7042 14.338H15.007H19.4437H20.7817C21.1338 14.338 21.4507 14.0563 21.4507 13.669C21.4507 13.2817 21.169 13 20.7817 13H13.669C13.3169 13 13 13.2817 13 13.669C13.0352 14.0563 13.3169 14.338 13.7042 14.338Z" fill="#B5AEA0"/>
<path d="M19.268 22.507V14.7958H15.2188V18.9507V19.9014V22.7887H19.268V22.507Z" fill="#B5AEA0"/>
<path d="M20.8168 31.662H19.4788H15.0422H13.7042C13.3521 31.662 13.0352 31.9437 13.0352 32.331C13.0352 32.7183 13.3169 33 13.7042 33H20.8168C21.169 33 21.4859 32.7183 21.4859 32.331C21.4507 31.9437 21.169 31.662 20.8168 31.662Z" fill="#B5AEA0"/>
<path d="M14.7957 19.6549V18.9507C14.7957 17.9295 14.0211 17.1197 13.0352 17.014V17.7183C13.0352 18.7394 13.8098 19.5845 14.7957 19.6549Z" fill="#B5AEA0"/>
<path d="M19.6895 22.5071V23.669H20.8514C21.9078 23.669 22.788 22.824 22.788 21.7324V20.5704H21.6261C20.5697 20.5352 19.6895 21.4507 19.6895 22.5071Z" fill="#B5AEA0"/>
<path d="M26.3447 28.5282V27.3662C26.3447 26.3098 25.4996 25.4296 24.4081 25.4296H23.2461V26.5915C23.2461 27.6479 24.0912 28.5282 25.1827 28.5282H26.3447Z" fill="#B5AEA0"/>
<path d="M25.2531 14.338H26.5911H30.9925H32.3305C32.6826 14.338 32.9995 14.0563 32.9995 13.669C32.9995 13.2817 32.7178 13 32.3305 13H25.2178C24.8657 13 24.5488 13.2817 24.5488 13.669C24.584 14.0563 24.8657 14.338 25.2531 14.338Z" fill="#B5AEA0"/>
<path d="M31.2393 23.8099V24.5141C32.2252 24.4437 32.9998 23.5986 32.9998 22.5775V21.8733C32.0139 21.9789 31.2393 22.824 31.2393 23.8099Z" fill="#B5AEA0"/>
<path d="M26.7676 27.3661V28.7746V31.2041H30.8169V24.7605V23.8098V23.2112H26.7676V27.3661Z" fill="#B5AEA0"/>
<path d="M32.3667 31.662H31.0286H26.592H25.254C24.9019 31.662 24.585 31.9437 24.585 32.331C24.585 32.7183 24.8667 33 25.254 33H32.3667C32.7188 33 33.0357 32.7183 33.0357 32.331C33.0005 31.9437 32.7188 31.662 32.3667 31.662Z" fill="#B5AEA0"/>
<path d="M30.7817 14.7958H26.7676V22.7887H30.7817V14.7958Z" fill="#B5AEA0"/>
</svg>
