<svg width="46" height="46" viewBox="0 0 46 46" fill="none" xmlns="http://www.w3.org/2000/svg">
<path d="M23 44C34.598 44 44 34.598 44 23C44 11.402 34.598 2 23 2C11.402 2 2 11.402 2 23C2 34.598 11.402 44 23 44Z" stroke="#B5AEA0" stroke-width="3" stroke-miterlimit="10"/>
<path d="M22.9767 13.2455C17.394 13.2455 12.8594 17.7801 12.8594 23.3628C12.8594 28.9455 17.394 33.4801 22.9767 33.4801C28.5594 33.4801 33.094 28.9455 33.094 23.3628C33.094 17.7801 28.5594 13.2455 22.9767 13.2455ZM22.9975 32.6915C19.4694 32.6915 16.3978 30.7199 14.8206 27.8144C14.0942 26.4966 13.6791 24.9712 13.6791 23.3628C13.6791 18.2367 17.8402 14.0756 22.9663 14.0756C26.4944 14.0756 29.5659 16.0576 31.1432 18.9527C31.8696 20.2705 32.2846 21.7959 32.2846 23.4043C32.2846 28.5201 28.1236 32.6915 22.9975 32.6915Z" fill="white"/>
<path d="M35.387 22.9891L35.3455 22.9476C34.6399 22.3665 34.5361 21.3288 35.0965 20.6128L35.1276 20.5817C35.8747 19.6374 35.4182 18.2469 34.2663 17.9252L34.2248 17.9149C33.3428 17.6658 32.824 16.763 33.0523 15.881L33.0626 15.8499C33.3636 14.6877 32.3778 13.5981 31.1844 13.7745H31.1533C30.2505 13.9094 29.3996 13.2972 29.2544 12.3944V12.3737C29.0572 11.1907 27.7082 10.5889 26.6913 11.2322L26.6809 11.2426C25.9027 11.7407 24.8858 11.5228 24.3773 10.7549C23.7132 9.74836 22.2397 9.74836 21.5756 10.7549L21.5652 10.7757C21.0567 11.5435 20.0294 11.7615 19.2616 11.2634C18.2446 10.62 16.8957 11.2115 16.6985 12.4048L16.6881 12.4463C16.5325 13.3491 15.692 13.9613 14.7892 13.8264H14.7788C13.5958 13.65 12.6101 14.7396 12.9006 15.9018L12.911 15.9537C13.1393 16.8357 12.6204 17.7385 11.7384 17.9875L11.7073 17.9979C10.5555 18.3196 10.0989 19.71 10.846 20.6543L10.8875 20.7062C11.4479 21.4222 11.3441 22.4599 10.6385 23.041L10.6073 23.0721C9.68382 23.84 9.83947 25.2927 10.8979 25.8531L10.9394 25.8738C11.7488 26.2993 12.0705 27.2851 11.6658 28.1048L11.645 28.1463C11.1158 29.2255 11.8526 30.4915 13.0459 30.5641H13.077C13.9902 30.616 14.6854 31.3943 14.6543 32.3074V32.3385C14.6024 33.5423 15.7957 34.4035 16.9164 33.9781L16.9372 33.9677C17.7984 33.646 18.7531 34.0715 19.0851 34.9224V34.9327C19.521 36.0534 20.9633 36.3647 21.8246 35.5138L21.835 35.5035C22.4887 34.8601 23.5368 34.8601 24.1905 35.5035C25.0518 36.3543 26.4941 36.043 26.93 34.9224L26.9403 34.8912C27.2724 34.0403 28.2374 33.6149 29.0883 33.9366C30.209 34.362 31.4024 33.4904 31.3505 32.297V32.2555C31.309 31.3424 32.0146 30.5641 32.9277 30.5122H32.9485C34.1418 30.4396 34.8786 29.1633 34.3493 28.0945L34.3182 28.0426C33.9135 27.2228 34.2352 26.237 35.0446 25.8116L35.0757 25.7908C36.1549 25.2097 36.3106 23.7466 35.387 22.9891ZM22.9764 33.0649C17.3937 33.0649 12.8591 28.5303 12.8591 22.9476C12.8591 17.3649 17.3937 12.8303 22.9764 12.8303C28.5591 12.8303 33.0938 17.3649 33.0938 22.9476C33.0938 28.5303 28.5591 33.0649 22.9764 33.0649Z" fill="#B5AEA0"/>
<path d="M22.9972 13.7019C17.871 13.7019 13.71 17.863 13.71 22.9891C13.71 24.5871 14.1147 26.0814 14.8203 27.3992C16.3872 30.3047 19.4691 32.2763 22.9972 32.2763C28.1233 32.2763 32.2843 28.1152 32.2843 22.9891C32.2843 21.3807 31.8693 19.8657 31.1429 18.5375C29.5656 15.6631 26.5045 13.7019 22.9972 13.7019ZM17.1965 22.2731C17.6012 21.8684 18.255 21.8684 18.6493 22.2731L21.1501 24.7739L27.3346 18.5894C27.7393 18.1847 28.3931 18.1847 28.7874 18.5894C29.1921 18.994 29.1921 19.6478 28.7874 20.0421L21.1397 27.6898L19.687 26.237L17.1862 23.7362C16.7919 23.3315 16.7919 22.6778 17.1965 22.2731Z" fill="#B5AEA0"/>
</svg>
