<svg width="46" height="46" viewBox="0 0 46 46" fill="none" xmlns="http://www.w3.org/2000/svg">
<path d="M23 44C34.598 44 44 34.598 44 23C44 11.402 34.598 2 23 2C11.402 2 2 11.402 2 23C2 34.598 11.402 44 23 44Z" stroke="#B5AEA0" stroke-width="3" stroke-miterlimit="10"/>
<path fill-rule="evenodd" clip-rule="evenodd" d="M18.1101 26.6937C18.2667 26.6937 18.4217 26.7246 18.5664 26.7845C18.711 26.8444 18.8424 26.9322 18.9531 27.0429C19.0638 27.1536 19.1516 27.285 19.2115 27.4297C19.2715 27.5743 19.3023 27.7293 19.3023 27.8859C19.3023 28.6377 19.6009 29.3587 20.1326 29.8903C20.6642 30.4219 21.3852 30.7206 22.137 30.7206C22.8888 30.7206 23.6098 30.4219 24.1414 29.8903C24.673 29.3587 24.9717 28.6377 24.9717 27.8859C24.9717 27.5697 25.0973 27.2665 25.3209 27.0429C25.5444 26.8193 25.8477 26.6937 26.1638 26.6937C26.48 26.6937 26.7833 26.8193 27.0068 27.0429C27.2304 27.2665 27.356 27.5697 27.356 27.8859C27.356 29.2701 26.8061 30.5975 25.8274 31.5763C24.8486 32.555 23.5212 33.1049 22.137 33.1049C20.7528 33.1049 19.4253 32.555 18.4466 31.5763C17.4678 30.5975 16.918 29.2701 16.918 27.8859C16.918 27.5697 17.0436 27.2665 17.2671 27.0429C17.4907 26.8193 17.7939 26.6937 18.1101 26.6937Z" fill="#B5AEA0"/>
<path fill-rule="evenodd" clip-rule="evenodd" d="M22.1949 22.1807C22.3483 21.9045 22.6052 21.7006 22.9089 21.6136C23.2127 21.5267 23.5385 21.5639 23.8149 21.7171C25.778 22.8086 26.6827 24.3663 27.0774 25.6618C27.2708 26.3003 27.341 26.8672 27.3622 27.2818C27.3737 27.5171 27.3706 27.7529 27.3529 27.9879L27.3516 28.0051V28.0117L27.3503 28.0143L26.1648 27.8859L27.3503 28.0183C27.3166 28.3327 27.1593 28.6209 26.9131 28.8194C26.667 29.0179 26.352 29.1104 26.0376 29.0767C25.7232 29.043 25.435 28.8857 25.2365 28.6395C25.0381 28.3934 24.9455 28.0784 24.9792 27.764M24.9792 27.764V27.7574L24.9832 27.6951C24.9902 27.2422 24.9272 26.7909 24.7964 26.3572C24.5487 25.5466 23.9884 24.5425 22.6572 23.802C22.5202 23.7261 22.3996 23.6238 22.3022 23.5012C22.2048 23.3786 22.1325 23.238 22.0895 23.0874C22.0464 22.9369 22.0334 22.7793 22.0513 22.6237C22.0691 22.4681 22.1175 22.3176 22.1935 22.1807M20.6146 22.8735C20.506 22.7606 20.3762 22.6703 20.2327 22.6076C20.0891 22.5449 19.9346 22.5111 19.778 22.5082C19.6215 22.5052 19.4658 22.5332 19.32 22.5904C19.1742 22.6476 19.0411 22.733 18.9283 22.8417C17.9748 23.7573 17.3205 24.9398 17.0513 26.2341C16.9401 26.762 16.8934 27.3016 16.9123 27.8408L16.9202 27.9561L16.9229 27.9945L16.9242 28.0077V28.013L16.9255 28.0157L18.0832 27.8885L16.9255 28.017C16.9591 28.3314 17.1161 28.6196 17.3622 28.8182C17.6082 29.0169 17.9231 29.1096 18.2375 29.076C18.552 29.0425 18.8402 28.8854 19.0388 28.6393C19.2374 28.3933 19.3301 28.0784 19.2966 27.764M19.2966 27.756V27.7613C19.2914 27.6793 19.2896 27.5971 19.2913 27.515C19.2953 27.3269 19.3165 27.0513 19.384 26.7281C19.5542 25.9007 19.9718 25.1445 20.5815 24.5597C20.6943 24.4511 20.7847 24.3213 20.8474 24.1778C20.91 24.0343 20.9438 23.8798 20.9468 23.7232C20.9497 23.5666 20.9218 23.411 20.8646 23.2652C20.8073 23.1194 20.7219 22.9863 20.6133 22.8735" fill="#B5AEA0"/>
<path fill-rule="evenodd" clip-rule="evenodd" d="M18.9968 22.7795C19.2404 22.578 19.5541 22.4816 19.8688 22.5114C20.1836 22.5412 20.4736 22.6948 20.6751 22.9384L22.3229 24.9293C22.5192 25.1735 22.6115 25.4852 22.5798 25.7969C22.5481 26.1086 22.395 26.3953 22.1535 26.595C21.9121 26.7947 21.6017 26.8913 21.2896 26.8639C20.9775 26.8365 20.6887 26.6874 20.4857 26.4487L18.8378 24.4578C18.6364 24.2141 18.54 23.9004 18.5698 23.5857C18.5996 23.271 18.7532 22.981 18.9968 22.7795Z" fill="#B5AEA0"/>
<path fill-rule="evenodd" clip-rule="evenodd" d="M23.867 21.7489C24.1351 21.9165 24.3255 22.1837 24.3966 22.4918C24.4676 22.7998 24.4134 23.1234 24.2459 23.3915L22.4153 26.3229C22.2447 26.5843 21.9783 26.7685 21.6735 26.8357C21.3686 26.9029 21.0495 26.8479 20.7848 26.6824C20.5201 26.5169 20.3309 26.2541 20.2578 25.9506C20.1847 25.6471 20.2335 25.327 20.3939 25.0592L22.2245 22.1304C22.3919 21.8622 22.659 21.6715 22.967 21.6002C23.2751 21.5289 23.5988 21.5829 23.867 21.7503V21.7489Z" fill="#B5AEA0"/>
<path fill-rule="evenodd" clip-rule="evenodd" d="M13.5268 22.5875C13.8781 22.5875 14.215 22.7271 14.4634 22.9755C14.7118 23.2239 14.8514 23.5608 14.8514 23.9121C14.8514 28.0052 18.0795 31.2877 22.1342 31.2877C26.1902 31.2877 29.4223 28.0026 29.4223 23.9121C29.4223 23.5608 29.5618 23.2239 29.8102 22.9755C30.0586 22.7271 30.3956 22.5875 30.7469 22.5875C31.0982 22.5875 31.4351 22.7271 31.6835 22.9755C31.9319 23.2239 32.0715 23.5608 32.0715 23.9121C32.0715 29.4305 27.6883 33.9369 22.1342 33.9369C16.58 33.9369 12.2021 29.4305 12.2021 23.9121C12.2021 23.5608 12.3417 23.2239 12.5901 22.9755C12.8385 22.7271 13.1755 22.5875 13.5268 22.5875Z" fill="#B5AEA0"/>
<path fill-rule="evenodd" clip-rule="evenodd" d="M16.9708 15.5669C16.8316 15.4625 16.6733 15.3866 16.5048 15.3434C16.3363 15.3003 16.1609 15.2907 15.9887 15.3153C15.8165 15.3399 15.6508 15.3982 15.5011 15.4868C15.3515 15.5754 15.2207 15.6927 15.1163 15.8318C12.9373 18.7381 12.2021 22.3357 12.2021 23.9121C12.2021 24.2634 12.3417 24.6003 12.5901 24.8487C12.8385 25.0971 13.1755 25.2367 13.5268 25.2367C13.8781 25.2367 14.215 25.0971 14.4634 24.8487C14.7118 24.6003 14.8514 24.2634 14.8514 23.9121C14.8514 22.8391 15.4409 19.8137 17.2357 17.4214C17.3401 17.2822 17.416 17.1239 17.4592 16.9554C17.5024 16.7869 17.5119 16.6115 17.4873 16.4393C17.4627 16.2671 17.4045 16.1014 17.3158 15.9517C17.2272 15.8021 17.11 15.6713 16.9708 15.5669ZM26.5876 14.2847C26.8574 14.0599 27.2055 13.9516 27.5552 13.9833C27.9049 14.0151 28.2277 14.1845 28.4526 14.4542C30.27 16.6346 31.1708 18.9858 31.6185 20.7753C31.8437 21.6734 31.9563 22.4391 32.0132 22.9875C32.0422 23.2671 32.0612 23.5476 32.0702 23.8286V23.8842L32.0715 23.9015V23.9107L30.7469 23.9121H32.0715C32.072 24.2634 31.933 24.6005 31.6849 24.8493C31.4369 25.0981 31.1002 25.2381 30.7489 25.2387C30.3976 25.2392 30.0604 25.1001 29.8116 24.8521C29.5628 24.6041 29.4228 24.2673 29.4223 23.916V23.8895L29.417 23.769C29.4084 23.6 29.3951 23.4313 29.3772 23.263C29.3111 22.6413 29.2008 22.0252 29.0474 21.4191C28.6672 19.8958 27.9122 17.9433 26.418 16.1498C26.1933 15.8799 26.0849 15.5319 26.1167 15.1821C26.1485 14.8324 26.3178 14.5096 26.5876 14.2847Z" fill="#B5AEA0"/>
<path fill-rule="evenodd" clip-rule="evenodd" d="M15.4937 15.4915C15.6429 15.402 15.8082 15.3427 15.9803 15.3171C16.1523 15.2915 16.3277 15.3001 16.4965 15.3423C16.6653 15.3844 16.8241 15.4595 16.9638 15.563C17.1036 15.6666 17.2216 15.7967 17.3111 15.9458L19.298 19.2574C19.4693 19.5582 19.5161 19.9142 19.4282 20.249C19.3404 20.5839 19.1249 20.8711 18.828 21.049C18.5311 21.227 18.1762 21.2817 17.8395 21.2013C17.5028 21.121 17.2109 20.912 17.0263 20.6191L15.0394 17.3075C14.9499 17.1584 14.8906 16.993 14.865 16.821C14.8394 16.6489 14.8479 16.4735 14.8901 16.3047C14.9323 16.136 15.0073 15.9772 15.1109 15.8374C15.2145 15.6977 15.3445 15.581 15.4937 15.4915ZM20.5312 11.0593C20.6535 10.9353 20.799 10.8367 20.9593 10.769C21.1197 10.7013 21.2919 10.6659 21.466 10.6648C21.64 10.6637 21.8126 10.6969 21.9738 10.7626C22.1351 10.8282 22.2818 10.925 22.4056 11.0474L22.4082 11.0513L22.4135 11.0566L22.4334 11.0752L22.5036 11.1467C22.861 11.5096 23.2082 11.8824 23.5448 12.2647C24.1263 12.927 24.8946 13.8675 25.3118 14.7179C25.6496 15.4014 25.998 16.2783 26.2549 16.9565C26.3963 17.3311 26.5332 17.7073 26.6656 18.0851L26.6921 18.1553L26.7 18.1818C26.8039 18.511 26.7752 18.8678 26.62 19.1762C26.4647 19.4846 26.1952 19.7201 25.8688 19.8327C25.5424 19.9453 25.185 19.926 24.8726 19.779C24.5603 19.6319 24.3177 19.3687 24.1965 19.0454L24.1938 19.0401L24.1885 19.0243L24.166 18.9607C24.0413 18.604 23.9119 18.249 23.7779 17.8957C23.5262 17.2307 23.2136 16.4518 22.9354 15.8875C22.6864 15.3829 22.1314 14.6689 21.5539 14.0132C21.2515 13.6699 20.9396 13.3351 20.6187 13.0091L20.5604 12.9495L20.5471 12.9363L20.5445 12.9336C20.4205 12.8115 20.3217 12.6661 20.2539 12.5057C20.1861 12.3454 20.1506 12.1733 20.1494 11.9992C20.1481 11.8251 20.1812 11.6525 20.2468 11.4912C20.3123 11.33 20.409 11.1832 20.5312 11.0593Z" fill="#B5AEA0"/>
<path fill-rule="evenodd" clip-rule="evenodd" d="M21.5334 10.9639C22.2884 11.0699 22.8129 11.7653 22.707 12.519V12.523L22.7056 12.531L22.7017 12.5601L22.6858 12.6621C22.6725 12.7495 22.654 12.874 22.6275 13.0264C22.5772 13.331 22.5003 13.7549 22.401 14.2252C22.2102 15.1206 21.9016 16.3472 21.4526 17.2228C21.0574 17.9676 20.6295 18.6946 20.1703 19.4018C19.9461 19.7524 19.7178 20.1004 19.4855 20.4456L19.4418 20.5105L19.4259 20.533C19.2172 20.8279 18.901 21.029 18.5455 21.0929C18.19 21.1569 17.8235 21.0787 17.5251 20.8751C17.2267 20.6716 17.0202 20.3589 16.95 20.0046C16.8799 19.6502 16.9518 19.2825 17.1502 18.9806L17.1528 18.9766L17.1621 18.9633L17.2018 18.9037C17.4221 18.5784 17.6376 18.2498 17.8483 17.9182C18.2456 17.2956 18.7013 16.5512 19.0007 15.967C19.2669 15.4478 19.5173 14.5404 19.7054 13.6516C19.804 13.186 19.8897 12.7178 19.9624 12.2475L19.9756 12.1627L19.9782 12.1429V12.1362C20.0033 11.9571 20.0634 11.7846 20.1551 11.6286C20.2468 11.4727 20.3683 11.3363 20.5127 11.2273C20.6571 11.1184 20.8216 11.0389 20.9967 10.9935C21.1718 10.948 21.3542 10.9376 21.5334 10.9626V10.9639ZM28.1154 14.1669C27.8143 13.9865 27.4539 13.9331 27.1134 14.0183C26.7729 14.1035 26.4801 14.3203 26.2993 14.6212L24.3124 17.9328C24.2153 18.082 24.1492 18.2493 24.1182 18.4246C24.0872 18.5999 24.0918 18.7797 24.1318 18.9532C24.1718 19.1267 24.2464 19.2904 24.3511 19.4344C24.4559 19.5784 24.5885 19.6998 24.7412 19.7914C24.8939 19.883 25.0635 19.9429 25.2399 19.9674C25.4162 19.992 25.5957 19.9807 25.7676 19.9343C25.9395 19.888 26.1003 19.8074 26.2404 19.6974C26.3805 19.5875 26.4969 19.4505 26.5828 19.2945L28.5698 15.9829C28.7506 15.6818 28.8045 15.3213 28.7196 14.9804C28.6346 14.6396 28.4178 14.3465 28.1167 14.1656L28.1154 14.1669Z" fill="#B5AEA0"/>
<path d="M10.6033 12.9269C10.362 12.677 10.2285 12.3424 10.2315 11.9951C10.2345 11.6478 10.3738 11.3156 10.6194 11.07C10.865 10.8244 11.1972 10.6851 11.5446 10.6821C11.8919 10.679 12.2265 10.8126 12.4763 11.0538L33.6703 32.2478C33.9116 32.4977 34.0451 32.8323 34.0421 33.1796C34.0391 33.5269 33.8997 33.8591 33.6541 34.1047C33.4085 34.3503 33.0763 34.4896 32.729 34.4926C32.3817 34.4956 32.0471 34.3621 31.7973 34.1208L10.6033 12.9269Z" fill="#B5AEA0"/>
</svg>
