<svg width="46" height="46" viewBox="0 0 46 46" fill="none" xmlns="http://www.w3.org/2000/svg">
<path d="M30.6186 33.9057C30.571 33.8581 30.571 33.8581 30.571 33.8581C30.571 33.8581 30.571 33.8581 30.571 33.8105C30.571 33.8105 30.571 33.8105 30.571 33.7628C30.571 33.7628 30.571 33.7628 30.571 33.7152C30.571 33.7152 30.571 33.7152 30.571 33.6676C30.571 33.6676 30.571 33.6676 30.571 33.62C30.571 33.62 30.571 33.62 30.5234 33.5724C30.5234 33.5724 30.5234 33.5724 30.5234 33.5247C30.5234 33.5247 30.5234 33.5248 30.4758 33.4771C30.4758 33.4771 30.4758 33.4771 30.4758 33.4295C30.4758 33.4295 30.4758 33.4295 30.4282 33.3819C30.4282 33.3819 30.4282 33.3819 30.4282 33.3343C30.4282 33.3343 30.4282 33.2867 30.3805 33.2867C30.3805 33.2867 30.3805 33.239 30.3329 33.239C30.2853 33.1914 30.2377 33.1438 30.2377 33.0486C30.2377 33.0486 30.2377 33.0009 30.1901 33.0009C30.1901 33.0009 30.1901 32.9533 30.1424 32.9533C30.1424 32.9533 30.1424 32.9057 30.0948 32.9057C30.0948 32.9057 30.0948 32.8581 30.0472 32.8581C30.0472 32.8581 30.0472 32.8105 29.9996 32.8105C29.9996 32.8105 29.9996 32.7628 29.952 32.7628C29.8091 32.5248 29.6663 32.2867 29.6186 32.1914C29.4758 32.0486 28.952 31.5724 28.4282 31.0486C28.0948 30.7152 27.8091 30.4295 27.6186 30.239C27.5234 30.1438 27.4281 30.0486 27.3329 29.9533C27.2377 29.8581 27.1424 29.7152 27.1424 29.5724V29.5247V29.4771C27.2377 29.239 27.4758 27.8581 27.7139 26.62L27.1901 23.5247L26.3805 23.9533C26.2377 24.0009 26.0472 23.9533 25.9996 23.8105C25.7139 23.3343 25.4282 22.8581 25.1424 22.3819C24.5234 21.3819 23.952 20.5247 23.7615 20.3819C23.6186 20.3343 23.5234 20.239 23.4282 20.0962C23.2377 19.7152 23.4758 19.0962 23.571 18.8581V17.1438C23.571 17.0962 23.571 17.0486 23.6186 17.0009L24.7139 15.3819L23.6186 13.1438C23.571 13.0962 23.571 13.0009 23.6186 12.9057L24.6186 9.81045C23.9996 9.71522 23.3329 9.6676 22.7139 9.6676C21.6186 9.6676 20.571 9.81045 19.4758 10.0485L18.8091 14.239C18.8091 14.2866 18.8091 14.3343 18.7615 14.3343C18.7615 14.3343 18.7615 14.3819 18.7139 14.3819C18.6186 14.5724 18.2853 15.0486 17.952 15.5247C17.2853 16.4771 17.0472 16.7628 16.9043 16.8105C16.8567 16.8581 16.8091 16.8581 16.7615 16.8581C16.5234 17.0009 15.4758 17.7628 14.6186 18.5247L14.0472 20.1914V21.8105L14.952 22.7152L15.3329 22.3343C15.4282 22.239 15.571 22.239 15.6662 22.2867L18.0472 23.4771C18.1424 23.5247 18.1901 23.5724 18.1901 23.6676C18.1901 23.7152 18.1901 23.7152 18.1901 23.7628V24.9533C18.1901 25.0009 18.1901 25.0009 18.1901 25.0486L17.6186 27.2867L19.2853 28.9533C19.2853 28.9533 19.3329 29.0009 19.3329 29.0486L19.952 30.239C19.9996 30.3343 19.9996 30.4295 19.952 30.4771C19.9043 30.5724 19.8567 30.62 19.7615 30.6676L17.952 31.2867C17.9043 31.2867 17.9043 31.2867 17.8567 31.2867H15.5234L12.7139 32.2867C15.2377 35.0962 18.8567 36.6676 22.6662 36.6676C25.5234 36.62 28.2853 35.7152 30.6186 33.9057C30.6663 33.9533 30.6663 33.9533 30.6186 33.9057Z" fill="#B5AEA0"/>
<path d="M31.4757 18.4772C31.3804 18.4772 31.3328 18.4295 31.2852 18.3819L30.4757 17.5724L29.0947 18.2867L30.0947 19.62C30.2852 19.8581 30.3804 20.1438 30.3804 20.4295C30.3804 20.5248 30.3804 20.6676 30.3328 20.7629L29.9519 22.2867L30.9519 22.62L32.2376 21.3343L33.0947 19.5724L32.7138 18.4772H31.4757Z" fill="#B5AEA0"/>
<path d="M15.381 30.62H17.7143L19.1429 30.1438L18.7143 29.2867L16.9524 27.5248C16.8572 27.4295 16.8571 27.3343 16.8571 27.239L17.4286 24.9057V23.9533L15.4286 22.9533L15 23.3819C14.9048 23.4771 14.7143 23.4771 14.5714 23.3819L13.381 22.1914C13.3333 22.1438 13.2857 22.0486 13.2857 22.0009V20.0962C13.2857 20.0486 13.2857 20.0486 13.2857 20.0009L13.9048 18.1914C13.9048 18.1438 13.9524 18.0962 14 18.0486C15.8571 16.5247 16.3333 16.239 16.4762 16.1914C16.5238 16.1438 16.5714 16.0962 16.6667 16.0009C16.9048 15.7152 17.2857 15.1914 17.6191 14.6676C17.7619 14.4295 17.9048 14.239 18.0476 14.0009L18.6667 10.1438C12.9524 11.8105 9 17.0962 9 23.1438C9 26.3343 10.0952 29.3343 12.1429 31.8105L15.2381 30.7152C15.3333 30.62 15.3333 30.62 15.381 30.62Z" fill="#B5AEA0"/>
<path d="M25.1424 9.85803L24.1424 12.9056L25.2852 15.1914C25.3329 15.2866 25.3329 15.3818 25.2852 15.4771C25.2852 15.4771 25.2852 15.4771 25.2852 15.5247L24.1424 17.239V18.9533C24.1424 19.0009 24.1424 19.0485 24.0948 19.0485C23.9519 19.3342 23.9043 19.7152 23.9043 19.858C23.9519 19.858 24.0472 19.9057 24.1424 20.0485C24.3329 20.239 24.7138 20.7152 25.3805 21.858C25.6186 22.239 25.8091 22.5723 25.9995 22.9057C26.0948 23.0961 26.19 23.239 26.2852 23.3818L27.2376 22.9057C27.3329 22.858 27.4281 22.858 27.5233 22.9057C27.6186 22.9533 27.6662 23.0485 27.6662 23.1437L28.2852 26.7628C28.2852 26.8104 28.2852 26.8104 28.2852 26.858C28.2852 26.9533 28.1424 27.6676 27.9995 28.3342C27.9519 28.6676 27.8567 28.9533 27.8567 29.1914C27.8567 29.239 27.8091 29.3342 27.8091 29.3818C27.8091 29.4295 27.8091 29.4295 27.8091 29.4771C27.8091 29.5723 27.7614 29.6676 27.7614 29.7152C28.0948 30.0961 29.2852 31.239 29.9995 31.9533L30.0472 32.0009C30.0472 32.0009 30.0948 32.0961 30.19 32.1914C30.19 32.1914 30.19 32.239 30.2376 32.239C30.2852 32.2866 30.3329 32.3818 30.3805 32.4771L30.4281 32.5247C30.4281 32.5247 30.4281 32.5723 30.4757 32.5723C30.4757 32.5723 30.4757 32.6199 30.5233 32.6199C30.5233 32.6199 30.5233 32.6676 30.571 32.6676C30.571 32.6676 30.571 32.7152 30.6186 32.7152C30.6186 32.7152 30.6186 32.7152 30.6186 32.7628C30.6186 32.7628 30.6186 32.8104 30.6662 32.8104C30.6662 32.8104 30.6662 32.8104 30.6662 32.858C30.6662 32.858 30.6662 32.9057 30.7138 32.9057C30.7138 32.9057 30.7138 32.9057 30.7138 32.9533C30.7138 32.9533 30.7138 33.0009 30.7614 33.0009L30.8091 33.0485C30.8567 33.0961 30.8567 33.1438 30.9043 33.1914L30.9519 33.239C30.9519 33.239 30.9519 33.2866 30.9995 33.2866C30.9995 33.2866 30.9995 33.3342 31.0472 33.3342C31.0472 33.3342 31.0472 33.3818 31.0948 33.3818C31.0948 33.3818 31.0948 33.4295 31.1424 33.4295C34.3329 30.8104 36.1424 27.0485 36.1424 22.9533C36.0948 16.5723 31.5233 11.0485 25.1424 9.85803ZM32.7138 21.6676C32.7138 21.7152 32.6662 21.7152 32.6662 21.7628L31.2376 23.1914C31.19 23.239 31.0948 23.2866 31.0472 23.2866C30.9995 23.2866 30.9995 23.2866 30.9519 23.2866L29.5233 22.8104C29.3805 22.7628 29.2852 22.6199 29.3329 22.4771L29.7614 20.7152C29.7614 20.6676 29.7614 20.5723 29.7614 20.5247C29.7614 20.3818 29.7138 20.1914 29.6186 20.0961L28.3805 18.4771C28.3329 18.4295 28.2852 18.3342 28.3329 18.239C28.3329 18.1438 28.4281 18.0961 28.4757 18.0485L30.3805 17.0961C30.4757 17.0485 30.6186 17.0485 30.7138 17.1438L31.571 18.0009H32.9043C33.0472 18.0009 33.1424 18.0961 33.19 18.1914L33.6662 19.6199C33.7138 19.7152 33.6662 19.7628 33.6662 19.858L32.7138 21.6676Z" fill="#B5AEA0"/>
<path d="M23 44C34.598 44 44 34.598 44 23C44 11.402 34.598 2 23 2C11.402 2 2 11.402 2 23C2 34.598 11.402 44 23 44Z" stroke="#B5AEA0" stroke-width="3" stroke-miterlimit="10"/>
</svg>
