<svg width="64" height="108" viewBox="0 0 64 108" fill="none" xmlns="http://www.w3.org/2000/svg">
<path d="M31.4767 5.83521C21.4392 5.83521 13.2861 13.9883 13.2861 24.0258C13.2861 34.0632 21.4392 42.2163 31.4767 42.2163C41.5142 42.2163 49.6673 34.0632 49.6673 24.0258C49.6673 13.9883 41.5142 5.83521 31.4767 5.83521ZM31.514 40.7984C25.1706 40.7984 19.6482 37.2536 16.8123 32.0296C15.5063 29.6602 14.76 26.9176 14.76 24.0258C14.76 14.8092 22.2415 7.32776 31.458 7.32776C37.8014 7.32776 43.3239 10.8913 46.1598 16.0966C47.4657 18.466 48.212 21.2086 48.212 24.1004C48.212 33.2983 40.7306 40.7984 31.514 40.7984Z" fill="white"/>
<path d="M43.5673 44.6976C43.0263 44.6976 42.4852 44.6043 41.9815 44.3991C41.7949 44.3245 41.627 44.3058 41.4404 44.3058C40.8061 44.3058 40.2464 44.679 40.0225 45.276L40.0038 45.332C39.3135 47.0671 37.6717 48.1865 35.806 48.1865C34.612 48.1865 33.4925 47.7201 32.653 46.8805C32.3731 46.6006 31.9813 46.4514 31.5895 46.4514C31.1791 46.4514 30.8059 46.6006 30.5261 46.8991L30.5074 46.9178C29.6678 47.7574 28.5484 48.2051 27.3544 48.2051C25.4887 48.2051 23.8282 47.0857 23.1566 45.3506L23.1379 45.332C22.914 44.7536 22.3543 44.3618 21.72 44.3618C21.5334 44.3618 21.3655 44.3991 21.1789 44.4551L21.1416 44.4737C20.6192 44.6603 20.0968 44.7723 19.5558 44.7723C18.4737 44.7723 17.4102 44.3618 16.5893 43.6528L11.3467 57.403L20.8431 54.5485L26.0297 63.0001L31.5522 48.541L37.0747 63.0001L42.2613 54.5485L51.7577 57.403L46.5151 43.6528C45.6569 44.3245 44.6308 44.6976 43.5673 44.6976Z" fill="#A36D36"/>
<path d="M53.7904 23.3539L53.7158 23.2793C52.4471 22.2345 52.2605 20.3688 53.268 19.0814L53.324 19.0255C54.6673 17.3277 53.8464 14.8276 51.7754 14.2493L51.7008 14.2306C50.115 13.7829 49.1821 12.1597 49.5926 10.5739L49.6112 10.5179C50.1523 8.4283 48.3799 6.46931 46.2343 6.78648H46.1783C44.5552 7.02902 43.0253 5.92826 42.7641 4.3051V4.26779C42.4096 2.14089 39.9842 1.05878 38.1558 2.21552L38.1372 2.23417C36.7379 3.12971 34.9095 2.73791 33.9953 1.3573C32.8013 -0.452432 30.152 -0.452432 28.9579 1.3573L28.9393 1.39461C28.0251 2.77523 26.178 3.16703 24.7974 2.27149C22.969 1.11476 20.5436 2.1782 20.1891 4.32376L20.1705 4.39839C19.8906 6.02155 18.3794 7.12231 16.7563 6.87977H16.7376C14.6107 6.5626 12.8383 8.52158 13.3607 10.6112L13.3793 10.7045C13.7898 12.2903 12.8569 13.9135 11.2711 14.3612L11.2151 14.3799C9.14421 14.9582 8.3233 17.4583 9.6666 19.1561L9.74123 19.2494C10.7487 20.5367 10.5621 22.4024 9.29346 23.4472L9.23749 23.5031C7.57702 24.8838 7.85687 27.4957 9.75989 28.5032L9.83452 28.5405C11.2898 29.3055 11.8681 31.0779 11.1405 32.5518L11.1032 32.6264C10.1517 34.5667 11.4763 36.8429 13.6219 36.9735H13.6779C15.3197 37.0668 16.5697 38.4661 16.5137 40.1079V40.1638C16.4204 42.3281 18.566 43.8766 20.5809 43.1116L20.6183 43.093C22.1668 42.5146 23.8832 43.2796 24.4803 44.8094V44.8281C25.2638 46.843 27.8572 47.4028 29.4057 45.8729L29.4244 45.8542C30.5998 44.6975 32.4841 44.6975 33.6595 45.8542C35.208 47.3841 37.8013 46.8244 38.5849 44.8094L38.6036 44.7535C39.2006 43.2236 40.9357 42.4587 42.4656 43.037C44.4806 43.802 46.6261 42.2348 46.5328 40.0892V40.0146C46.4582 38.3728 47.7269 36.9735 49.3687 36.8802H49.406C51.5516 36.7496 52.8762 34.4548 51.9247 32.5331L51.8687 32.4398C51.1411 30.9659 51.7195 29.1935 53.1747 28.4286L53.2307 28.3913C55.171 27.3465 55.4509 24.7159 53.7904 23.3539ZM31.4766 41.4698C21.4392 41.4698 13.2861 33.3167 13.2861 23.2793C13.2861 13.2418 21.4392 5.0887 31.4766 5.0887C41.5141 5.0887 49.6672 13.2418 49.6672 23.2793C49.6672 33.3167 41.5141 41.4698 31.4766 41.4698Z" fill="#A36D36"/>
<path d="M31.5134 6.65601C22.2969 6.65601 14.8154 14.1375 14.8154 23.354C14.8154 26.2272 15.5431 28.9138 16.8117 31.2832C19.6289 36.5072 25.1701 40.052 31.5134 40.052C40.73 40.052 48.2114 32.5706 48.2114 23.354C48.2114 20.4622 47.4652 17.7383 46.1592 15.3502C43.3233 10.1822 37.8195 6.65601 31.5134 6.65601ZM21.0842 22.0667C21.8118 21.3391 22.9872 21.3391 23.6962 22.0667L28.1925 26.563L39.3121 15.4434C40.0397 14.7158 41.2151 14.7158 41.924 15.4434C42.6517 16.1711 42.6517 17.3465 41.924 18.0554L28.1738 31.8056L25.5619 29.1937L21.0655 24.6973C20.3566 23.9697 20.3566 22.7943 21.0842 22.0667Z" fill="#A36D36"/>
<path d="M4.06667 74.8667C3.69333 74.8667 3.38667 74.56 3.38667 74.2C3.38667 73.84 3.69333 73.5333 4.06667 73.5333C4.42667 73.5333 4.73333 73.84 4.73333 74.2C4.73333 74.56 4.42667 74.8667 4.06667 74.8667ZM0.653333 78.2267H1.68V80.96C1.68 82.5467 2.78667 83.64 4.36 83.64H4.41333C6 83.64 7.12 82.5467 7.12 80.96V74.64H8.16V80.96C8.16 83.0933 6.56 84.68 4.41333 84.68H4.36C2.22667 84.68 0.653333 83.0933 0.653333 80.96V78.2267ZM10.0216 71.72H11.0616V79.3067C11.0616 79.7333 11.3682 79.96 11.7016 79.96H12.5549V81H11.3949C10.6216 81 10.0216 80.4133 10.0216 79.6267V71.72ZM20.8076 79.96H21.2476V81H20.8076C19.9809 81 19.3143 80.56 19.0209 79.8933C18.5809 80.52 17.8609 80.9467 17.0343 80.9467C16.1409 80.9467 15.3143 80.6133 14.7276 80.0133C14.3943 80.6133 13.7543 81 12.9809 81H12.4476L11.9943 80.8267V80.1333L12.4476 79.96H12.9809C13.6476 79.96 14.1143 79.4933 14.1143 78.8133V76.9867C14.1143 75.44 15.2743 74.28 16.8209 74.28H16.9543C18.5143 74.28 19.6609 75.44 19.6609 76.9867V78.8133C19.6609 79.4933 20.1409 79.96 20.8076 79.96ZM17.0343 79.9067C17.9009 79.9067 18.6343 79.16 18.6343 78.24V76.9867C18.6343 76.0133 17.9276 75.32 16.9543 75.32H16.8209C15.8343 75.32 15.1543 76.0133 15.1543 76.9867V79C15.5676 79.5733 16.2609 79.9067 17.0343 79.9067ZM27.0733 73.48C26.7133 73.48 26.4066 73.1733 26.4066 72.8133C26.4066 72.4533 26.7133 72.1333 27.0733 72.1333C27.4466 72.1333 27.7399 72.4533 27.7399 72.8133C27.7399 73.1733 27.4466 73.48 27.0733 73.48ZM30.2599 79.96H31.1399V81H21.0999L20.6599 80.8267V80.1333L21.0999 79.96H22.1933V75.1333H23.2199V76.8133C24.2866 75.5867 25.6333 74.4533 27.1133 74.4533C29.1666 74.4533 30.2599 75.5067 30.2599 78.1333V79.96ZM29.2466 79.96V78.1333C29.2466 76.16 28.3666 75.48 27.0333 75.48C25.7666 75.48 24.4333 76.4133 23.2199 77.8267V79.96H29.2466ZM32.5347 71.72H33.5747V79.6267C33.5747 80.4133 32.9747 81 32.2014 81H31.0414L30.6014 80.8267V80.1333L31.0414 79.96H31.908C32.228 79.96 32.5347 79.7333 32.5347 79.3067V71.72ZM36.5189 81H35.4789V71.72H36.5189V81ZM42.6781 73.1467C42.3181 73.1467 42.0115 72.84 42.0115 72.48C42.0115 72.12 42.3181 71.8 42.6781 71.8C43.0515 71.8 43.3448 72.12 43.3448 72.48C43.3448 72.84 43.0515 73.1467 42.6781 73.1467ZM44.8515 73.1467C44.4781 73.1467 44.1715 72.84 44.1715 72.48C44.1715 72.12 44.4781 71.8 44.8515 71.8C45.2115 71.8 45.5181 72.12 45.5181 72.48C45.5181 72.84 45.2115 73.1467 44.8515 73.1467ZM40.8115 76.92C40.8115 75.4533 41.9981 74.2667 43.4515 74.2667H43.6648C45.1315 74.2667 46.3181 75.4533 46.3181 76.92V78.52C46.3181 79.88 45.2115 80.9867 43.8648 80.9867H43.4515C41.9715 80.9867 40.8115 79.8267 40.8115 78.3467V76.92ZM41.8515 76.92V78.3467C41.8515 79.2267 42.5715 79.9467 43.4515 79.9467H43.8915C44.6515 79.9467 45.2781 79.3333 45.2781 78.56V76.92C45.2781 76 44.5715 75.3067 43.6648 75.3067H43.4515C42.5448 75.3067 41.8515 76 41.8515 76.92ZM51.6622 79.96V81H50.3289V81.2933C50.3289 82.8267 49.1689 83.9733 47.6356 83.9733H46.9689V82.9467H47.6356C48.5956 82.9467 49.2889 82.2667 49.2889 81.2933V74.6133H50.3289V79.96H51.6622ZM53.0701 73.5467C52.7101 73.5467 52.4034 73.2533 52.4034 72.88C52.4034 72.52 52.7101 72.2133 53.0701 72.2133C53.4434 72.2133 53.7368 72.52 53.7368 72.88C53.7368 73.2533 53.4434 73.5467 53.0701 73.5467ZM55.2434 73.5467C54.8701 73.5467 54.5634 73.2533 54.5634 72.88C54.5634 72.52 54.8701 72.2133 55.2434 72.2133C55.6034 72.2133 55.9101 72.52 55.9101 72.88C55.9101 73.2533 55.6034 73.5467 55.2434 73.5467ZM55.7234 79.96H56.9101V81H55.5901C54.9901 81 54.4834 80.6933 54.1234 80.2533C53.7901 80.6933 53.2834 81 52.5368 81H51.4968L51.0434 80.8267V80.1333L51.4968 79.96H52.5501C53.2968 79.96 53.6168 79.4667 53.6168 78.84V74.6933H54.6568V78.4933C54.6568 78.5867 54.6568 78.6933 54.6434 78.8V78.84C54.6434 79.4667 54.9901 79.96 55.7234 79.96ZM60.4164 73.0267C60.0831 73.0267 59.7897 72.7467 59.7764 72.4C59.7497 72.0267 60.0564 71.6933 60.4431 71.6933C60.8031 71.6933 61.0964 71.9867 61.1097 72.3467C61.1097 72.72 60.8031 73.04 60.4164 73.0267ZM60.4697 74.28C61.9764 74.28 63.1764 75.48 63.1764 77V78.4533C63.1764 79.8533 62.0431 80.9867 60.6297 80.9867H56.8164L56.3631 80.8267V80.12L56.8164 79.9467H58.4297C57.9497 79.5733 57.6297 78.96 57.6297 78.28V77C57.6297 75.48 58.8164 74.28 60.3364 74.28H60.4697ZM62.1364 78.3467V77C62.1364 76.0533 61.4164 75.32 60.4697 75.32H60.3364C59.3897 75.32 58.6697 76.0533 58.6697 77V78.28C58.6697 79.2 59.3897 79.9467 60.2564 79.9467H60.5364C61.4164 79.9467 62.1364 79.24 62.1364 78.3467Z" fill="black"/>
<path d="M9.24 94.3067C8.88 94.3067 8.57333 94 8.57333 93.6267C8.57333 93.2667 8.88 92.96 9.24 92.96C9.61333 92.96 9.90667 93.2667 9.90667 93.6267C9.90667 94 9.61333 94.3067 9.24 94.3067ZM11.4133 94.3067C11.04 94.3067 10.7333 94 10.7333 93.6267C10.7333 93.2667 11.04 92.96 11.4133 92.96C11.7733 92.96 12.0667 93.2667 12.0667 93.6267C12.0667 94 11.7733 94.3067 11.4133 94.3067ZM5.53333 96.08H6.57333V98.32C6.57333 99.28 7.25333 99.96 8.21333 99.96H13.24C13.9733 99.96 14.32 99.4667 14.32 98.84V94.28H15.3467V99.24C15.3467 100.24 14.5867 101 13.5867 101H8.21333C6.68 101 5.53333 99.8533 5.53333 98.32V96.08ZM18.1985 101H17.1585V91.72H18.1985V101ZM26.2978 99.96V101H25.4978V101.6C25.4978 103.467 23.9911 104.32 21.0045 103.813V102.84C23.5778 103.173 24.4578 102.693 24.4578 101.387V100.987H22.5511C21.1111 100.973 19.9511 99.7467 19.9511 98.28V97C19.9511 95.4533 21.0978 94.28 22.6578 94.28H22.7911C24.3511 94.28 25.4978 95.4533 25.4978 97V99.96H26.2978ZM22.5778 99.9467H24.4578V97C24.4578 96.0133 23.7645 95.32 22.7911 95.32H22.6578C21.6711 95.32 20.9911 96.0133 20.9911 97V98.28C20.9911 99.2 21.7111 99.9467 22.5778 99.9467ZM28.2571 93.56C27.8971 93.56 27.5905 93.2533 27.5905 92.8933C27.5905 92.5333 27.8971 92.2267 28.2571 92.2267C28.6305 92.2267 28.9238 92.5333 28.9238 92.8933C28.9238 93.2533 28.6305 93.56 28.2571 93.56ZM29.9505 99.96H30.4171V101H29.8171C29.2171 101 28.7105 100.693 28.3505 100.253C28.0171 100.693 27.5105 101 26.7638 101H26.2038L25.7505 100.827V100.133L26.2038 99.96H26.7771C27.5238 99.96 27.8438 99.4667 27.8438 98.84V94.6933H28.8838V98.4933C28.8838 98.5867 28.8838 98.6933 28.8705 98.8V98.84C28.8705 99.4667 29.2171 99.96 29.9505 99.96ZM39.053 94.36H40.093V98.7867C40.093 100.013 39.093 101 37.8796 101C37.013 101 36.3863 100.72 36.0396 100.253C35.653 100.773 34.9196 101.013 34.2396 101.013C33.5196 101.013 32.9196 100.747 32.533 100.267C32.1863 100.707 31.613 101 30.9863 101H30.2796L29.8263 100.827V100.133L30.2796 99.96H31.0396C31.5996 99.96 32.0263 99.5333 32.0263 98.9733V95.6667H33.053V98.9733C33.053 99.5867 33.4396 99.96 34.253 99.9867C35.013 100 35.5196 99.5733 35.5196 98.9733V95.6667H36.5596V98.9733C36.5596 99.5867 37.0263 99.96 37.8796 99.96C38.5196 99.96 39.053 99.44 39.053 98.7867V94.36ZM46.0319 101.04L46.0452 92.9867L44.4319 94.0533L44.0985 93.0267L46.4052 91.8533H46.6319H47.1919V101.04H46.0319ZM52.254 101.173C50.014 101.173 48.8273 99.32 48.8273 96.4267C48.8273 93.5867 50.014 91.76 52.254 91.76C54.494 91.76 55.6807 93.5867 55.6807 96.4267C55.6807 99.32 54.494 101.173 52.254 101.173ZM52.254 100.187C53.9473 100.187 54.5073 98.4133 54.5073 96.4267C54.5073 94.4267 53.9473 92.7333 52.254 92.7333C50.5607 92.7333 49.9873 94.4267 49.9873 96.4267C49.9873 98.4133 50.5607 100.187 52.254 100.187Z" fill="black"/>
</svg>
