<svg width="46" height="46" viewBox="0 0 46 46" fill="none" xmlns="http://www.w3.org/2000/svg">
<path d="M23 44C34.598 44 44 34.598 44 23C44 11.402 34.598 2 23 2C11.402 2 2 11.402 2 23C2 34.598 11.402 44 23 44Z" stroke="#B5AEA0" stroke-width="3" stroke-miterlimit="10"/>
<path d="M15.1836 32.7583C15.1836 32.7583 17.0344 34.4958 21.0005 35.2387L21.0635 35.4905C21.0635 35.4905 17.9913 36.9636 15.2969 36.7748L15.1836 32.7583Z" fill="#B5AEA0"/>
<path d="M31.086 32.7583C31.086 32.7583 29.2351 34.4958 25.269 35.2387L25.2061 35.4905C25.2061 35.4905 28.2782 36.9636 30.9726 36.7748L31.086 32.7583Z" fill="#B5AEA0"/>
<path d="M29.2974 20.0541C29.2974 20.0541 28.8316 19.9157 28.4916 20.8474C28.1517 21.7917 28.4538 25.0905 28.4538 25.0905" stroke="#B5AEA0" stroke-miterlimit="10" stroke-linecap="round" stroke-linejoin="round"/>
<path d="M30.0528 19.1729C29.864 19.198 29.5492 19.3491 29.3225 19.9535C28.9826 20.8978 29.3603 24.2595 29.3603 24.2595" stroke="#B5AEA0" stroke-miterlimit="10" stroke-linecap="round" stroke-linejoin="round"/>
<path d="M30.9719 18.0397C30.9719 18.0397 30.4809 17.876 30.1409 18.8203C29.801 19.7646 30.1787 23.0634 30.1787 23.0634" stroke="#B5AEA0" stroke-miterlimit="10" stroke-linecap="round" stroke-linejoin="round"/>
<path d="M31.1983 21.6407C31.1983 21.3259 31.1857 21.0237 31.1479 20.7215C30.4051 15.4838 32.0797 16.5288 32.6085 17.8508C33.1373 19.1729 34.0816 23.1641 33.6409 25.7453C33.2002 28.3264 32.2811 30.9453 31.0472 32.3932" stroke="#B5AEA0" stroke-miterlimit="10" stroke-linecap="round" stroke-linejoin="round"/>
<path d="M31.0474 32.4058C31.0474 32.4058 30.9719 34.7603 30.9215 36.7622C30.9215 36.7622 27.9123 36.7496 25.2305 35.4906C25.2305 35.4906 25.9985 32.7584 26.9806 30.5298" stroke="#B5AEA0" stroke-miterlimit="10" stroke-linecap="round" stroke-linejoin="round"/>
<path d="M30.7079 28.6034C31.4256 27.4199 31.69 26.1608 31.4507 25.3172C31.5892 24.3603 32.8735 22.4969 32.244 21.8295C31.6144 21.1622 30.6953 21.7162 30.3176 22.7864C29.9398 23.8567 28.7563 24.8387 28.7563 24.8387C28.2149 25.2165 27.6861 25.7956 27.258 26.4881C26.213 28.1879 26.15 30.0387 27.0943 30.6179C27.2706 30.7186 27.4595 30.7816 27.6735 30.7942" stroke="#B5AEA0" stroke-miterlimit="10" stroke-linecap="round" stroke-linejoin="round"/>
<path d="M16.9326 20.0543C16.9326 20.0543 17.3985 19.9158 17.7384 20.8475C18.0784 21.7918 17.7762 25.0906 17.7762 25.0906" stroke="#B5AEA0" stroke-miterlimit="10" stroke-linecap="round" stroke-linejoin="round"/>
<path d="M16.1777 19.173C16.3666 19.1982 16.6814 19.3492 16.908 19.9536C17.248 20.8979 16.8702 24.2597 16.8702 24.2597" stroke="#B5AEA0" stroke-miterlimit="10" stroke-linecap="round" stroke-linejoin="round"/>
<path d="M15.2588 18.0272C15.2588 18.0272 15.7498 17.8635 16.0898 18.8078C16.4297 19.7521 16.052 23.0509 16.052 23.0509" stroke="#B5AEA0" stroke-miterlimit="10" stroke-linecap="round" stroke-linejoin="round"/>
<path d="M15.032 21.6408C15.0195 21.326 15.0446 21.0238 15.0824 20.7216C15.8253 15.4839 14.1507 16.5289 13.6219 17.8509C13.0931 19.173 12.1488 23.1643 12.5894 25.7454C13.0301 28.3265 13.9492 30.9454 15.1831 32.3933" stroke="#B5AEA0" stroke-miterlimit="10" stroke-linecap="round" stroke-linejoin="round"/>
<path d="M15.1826 32.4059C15.1826 32.4059 15.1952 34.6345 15.2959 36.7624C15.2959 36.7624 18.3177 36.7498 20.9996 35.4907C20.9996 35.4907 20.2315 32.7585 19.2494 30.5299" stroke="#B5AEA0" stroke-miterlimit="10" stroke-linecap="round" stroke-linejoin="round"/>
<path d="M15.5232 28.6035C14.8055 27.4199 14.5411 26.1609 14.7803 25.3173C14.6418 24.3604 13.3576 22.4969 13.9871 21.8296C14.6166 21.1623 15.5358 21.7289 15.9135 22.7865C16.2912 23.8567 17.4748 24.8388 17.4748 24.8388C18.0162 25.2166 18.545 25.7957 18.9731 26.4882C20.0181 28.188 20.081 30.0388 19.1367 30.618C18.9605 30.7187 18.7716 30.7817 18.5576 30.7943" stroke="#B5AEA0" stroke-miterlimit="10" stroke-linecap="round" stroke-linejoin="round"/>
<path d="M23.1664 11.8953C23.1664 11.8953 19.0618 18.1403 19.1752 21.1117C19.1752 23.3151 20.963 25.103 23.1664 25.103C25.3698 25.103 27.1577 23.3151 27.1577 21.1117C27.2584 18.1277 23.1664 11.8953 23.1664 11.8953Z" fill="#B5AEA0"/>
<path d="M23.1664 11.8953C23.1664 11.8953 19.0618 18.1403 19.1752 21.1117C19.1752 23.3151 20.963 25.103 23.1664 25.103C25.3698 25.103 27.1577 23.3151 27.1577 21.1117C27.2584 18.1277 23.1664 11.8953 23.1664 11.8953Z" stroke="#B5AEA0" stroke-miterlimit="10" stroke-linecap="round" stroke-linejoin="round"/>
<path d="M26.4399 21.4139C26.4399 22.5723 25.4956 23.504 24.3498 23.504C23.1915 23.504 22.2598 22.5597 22.2598 21.4139C22.2598 20.2556 23.2041 19.3239 24.3498 19.3239C25.4956 19.3239 26.4399 20.2556 26.4399 21.4139Z" fill="#B5AEA0"/>
<path d="M24.8404 20.0792H23.8457V22.7611H24.8404V20.0792Z" fill="#B5AEA0"/>
<path d="M25.6838 20.9229H23.002V21.9175H25.6838V20.9229Z" fill="#B5AEA0"/>
<path d="M12.8673 35.3394C10.1351 33.2493 8.05763 30.3409 7 26.9791" stroke="#B5AEA0" stroke-width="2" stroke-miterlimit="10" stroke-linecap="round" stroke-linejoin="round"/>
<path d="M39.0315 27.5835C37.8983 30.769 35.8334 33.5012 33.1768 35.4779" stroke="#B5AEA0" stroke-width="2" stroke-miterlimit="10" stroke-linecap="round" stroke-linejoin="round"/>
<path d="M25.2315 35.4653C24.539 35.5661 23.8339 35.629 23.1162 35.629C22.3986 35.629 21.6935 35.5786 21.001 35.4653" stroke="#B5AEA0" stroke-width="2" stroke-miterlimit="10" stroke-linecap="round" stroke-linejoin="round"/>
<path d="M15.197 33.1109C11.6968 30.6305 9.40527 26.5385 9.40527 21.9177C9.40527 14.338 15.5496 8.2063 23.1167 8.2063C30.6963 8.2063 36.828 14.3506 36.828 21.9177C36.828 26.5511 34.5365 30.6431 31.0237 33.1235" stroke="#B5AEA0" stroke-width="2" stroke-miterlimit="10" stroke-linecap="round" stroke-linejoin="round"/>
<path d="M23.167 37.0645L23.7084 38.1724L24.9171 38.3487L24.0484 39.2049L24.2498 40.4136L23.167 39.847L22.0716 40.4136L22.2857 39.2049L21.4043 38.3487L22.6256 38.1724L23.167 37.0645Z" fill="#B5AEA0"/>
</svg>
