<svg width="45" height="46" viewBox="0 0 45 46" fill="none" xmlns="http://www.w3.org/2000/svg">
<path d="M22.5 46C34.9264 46 45 35.7025 45 23C45 10.2975 34.9264 0 22.5 0C10.0736 0 0 10.2975 0 23C0 35.7025 10.0736 46 22.5 46Z" fill="white"/>
<path d="M22.002 13.2532C21.5756 13.2532 21.1534 13.3372 20.7595 13.5004C20.3656 13.6635 20.0076 13.9027 19.7062 14.2042C19.4047 14.5057 19.1655 14.8636 19.0023 15.2575C18.8392 15.6514 18.7552 16.0736 18.7552 16.5C18.7552 16.9264 18.8392 17.3485 19.0023 17.7425C19.1655 18.1364 19.4047 18.4943 19.7062 18.7958C20.0076 19.0973 20.3656 19.3364 20.7595 19.4996C21.1534 19.6628 21.5756 19.7467 22.002 19.7467C22.863 19.7467 23.6889 19.4047 24.2978 18.7958C24.9066 18.1869 25.2487 17.3611 25.2487 16.5C25.2487 15.6389 24.9066 14.8131 24.2978 14.2042C23.6889 13.5953 22.863 13.2532 22.002 13.2532ZM29.3145 14.875C28.668 14.875 28.048 15.1318 27.5909 15.5889C27.1338 16.046 26.877 16.666 26.877 17.3125C26.877 17.959 27.1338 18.5789 27.5909 19.0361C28.048 19.4932 28.668 19.75 29.3145 19.75C29.9609 19.75 30.5809 19.4932 31.038 19.0361C31.4951 18.5789 31.752 17.959 31.752 17.3125C31.752 16.666 31.4951 16.046 31.038 15.5889C30.5809 15.1318 29.9609 14.875 29.3145 14.875ZM14.6895 14.875C14.043 14.875 13.423 15.1318 12.9659 15.5889C12.5088 16.046 12.252 16.666 12.252 17.3125C12.252 17.959 12.5088 18.5789 12.9659 19.0361C13.423 19.4932 14.043 19.75 14.6895 19.75C15.3359 19.75 15.9559 19.4932 16.413 19.0361C16.8701 18.5789 17.127 17.959 17.127 17.3125C17.127 16.666 16.8701 16.046 16.413 15.5889C15.9559 15.1318 15.3359 14.875 14.6895 14.875ZM17.127 22.9886C17.13 22.5596 17.3025 22.1492 17.6069 21.8469C17.9113 21.5446 18.3229 21.375 18.752 21.375H25.252C25.6829 21.375 26.0963 21.5462 26.401 21.8509C26.7057 22.1557 26.877 22.569 26.877 23V27.875C26.8768 28.3864 26.7968 28.8947 26.6397 29.3814C26.2799 30.4843 25.5387 31.4227 24.5492 32.0283C23.5597 32.6339 22.3867 32.8669 21.2408 32.6854C20.095 32.504 19.0514 31.92 18.2974 31.0383C17.5434 30.1567 17.1284 29.0351 17.127 27.875V22.9886ZM15.502 23C15.502 22.4069 15.6596 21.8527 15.9375 21.375H12.252C11.821 21.375 11.4077 21.5462 11.1029 21.8509C10.7982 22.1557 10.627 22.569 10.627 23V27.0625C10.6267 27.7276 10.7898 28.3826 11.1019 28.97C11.414 29.5573 11.8655 30.0591 12.4168 30.4312C12.9681 30.8033 13.6023 31.0343 14.2638 31.104C14.9253 31.1737 15.5937 31.0799 16.2105 30.8309C15.7427 29.9153 15.4999 28.9015 15.502 27.8734V23ZM28.502 23V27.875C28.502 28.9394 28.2468 29.9436 27.7935 30.8309C28.4102 31.0799 29.0787 31.1737 29.7401 31.104C30.4016 31.0343 31.0358 30.8033 31.5871 30.4312C32.1384 30.0591 32.5899 29.5573 32.902 28.97C33.2141 28.3826 33.3772 27.7276 33.377 27.0625V23C33.377 22.569 33.2057 22.1557 32.901 21.8509C32.5963 21.5462 32.1829 21.375 31.752 21.375H28.0665C28.3427 21.8527 28.502 22.4069 28.502 23Z" fill="#9E8763"/>
</svg>
