<svg width="46" height="46" viewBox="0 0 46 46" fill="none" xmlns="http://www.w3.org/2000/svg">
<path fill-rule="evenodd" clip-rule="evenodd" d="M23.8981 29.9614C26.4836 29.9614 28.5793 27.8656 28.5793 25.2802C28.5793 22.6947 23.8981 16.5267 23.8981 16.5267C23.8981 16.5267 19.2169 22.6962 19.2169 25.2802C19.2169 27.8656 21.3126 29.9614 23.8981 29.9614ZM35.0944 17.5356C32.3001 14.5398 28.3175 12.6676 23.8966 12.6676C19.4772 12.6676 15.4946 14.5398 12.6989 17.5356C12.6783 17.8944 12.668 18.2577 12.668 18.6224C12.668 26.2655 17.2933 32.8292 23.8966 35.6676C30.5 32.8292 35.1253 26.2655 35.1253 18.6224C35.1268 18.2577 35.115 17.8959 35.0944 17.5356Z" fill="#B5AEA0"/>
<path d="M12.7008 17.5356C12.6802 17.8944 12.6699 18.2577 12.6699 18.6224C12.6699 26.2655 17.2952 32.8292 23.8986 35.6676C30.5019 32.8292 35.1272 26.2655 35.1272 18.6224C35.1272 18.2577 35.1169 17.8959 35.0964 17.5356C32.3021 14.5398 28.3195 12.6676 23.8986 12.6676C19.4777 12.6676 15.4951 14.5413 12.7008 17.5356ZM13.8303 18.6224C13.8303 18.4239 13.8332 18.2238 13.8406 18.0253C16.501 15.3369 20.0998 13.8294 23.8986 13.8294C27.6974 13.8294 31.2961 15.3369 33.9566 18.0253C33.9639 18.2238 33.9669 18.4239 33.9669 18.6224C33.9669 25.4169 30.0166 31.557 23.8986 34.3969C17.7805 31.557 13.8303 25.4169 13.8303 18.6224Z" fill="#B5AEA0"/>
<path d="M23 44C34.598 44 44 34.598 44 23C44 11.402 34.598 2 23 2C11.402 2 2 11.402 2 23C2 34.598 11.402 44 23 44Z" stroke="#B5AEA0" stroke-width="3" stroke-miterlimit="10"/>
</svg>
