<svg width="45" height="46" viewBox="0 0 45 46" fill="none" xmlns="http://www.w3.org/2000/svg">
<path d="M22.5 46C34.9264 46 45 35.7025 45 23C45 10.2975 34.9264 0 22.5 0C10.0736 0 0 10.2975 0 23C0 35.7025 10.0736 46 22.5 46Z" fill="white"/>
<g clip-path="url(#clip0_896_557)">
<path d="M31.107 14.4533C30.493 13.8464 29.6858 13.4738 28.8256 13.4003C27.9653 13.3267 27.1066 13.5569 26.3984 14.0508C28.6747 14.9985 30.5341 16.7333 31.6373 18.9383C32.0632 18.2391 32.2423 17.4173 32.1462 16.6043C32.0501 15.7913 31.6842 15.034 31.107 14.4533Z" fill="#9E8763"/>
<path d="M18.2955 14.1915C17.5903 13.6315 16.7045 13.3489 15.8053 13.3971C14.9061 13.4454 14.0556 13.8211 13.4144 14.4535C12.7785 15.0936 12.4019 15.9463 12.3571 16.8475C12.3122 17.7486 12.6024 18.6345 13.1716 19.3346C14.1967 17.0538 16.0185 15.2251 18.2955 14.1915Z" fill="#9E8763"/>
<path d="M22.5012 14.5555C20.7352 14.5592 19.0098 15.0855 17.5425 16.0682C16.0752 17.0509 14.9316 18.4459 14.2559 20.0775C13.5802 21.7091 13.4025 23.5042 13.7454 25.2365C14.0883 26.9689 14.9363 28.561 16.1826 29.8122L14.5534 31.4414C14.4942 31.5018 14.4476 31.5732 14.416 31.6517C14.3845 31.7301 14.3687 31.814 14.3696 31.8986C14.3705 31.9831 14.388 32.0666 14.4212 32.1444C14.4544 32.2222 14.5026 32.2926 14.563 32.3518C14.6234 32.4109 14.6948 32.4576 14.7733 32.4891C14.8517 32.5207 14.9356 32.5364 15.0202 32.5355C15.1047 32.5347 15.1882 32.5171 15.266 32.484C15.3438 32.4508 15.4142 32.4026 15.4734 32.3422L17.1728 30.6428C18.7269 31.8188 20.6248 32.4509 22.5737 32.4417C24.5226 32.4325 26.4144 31.7824 27.9573 30.5916L29.7078 32.3422C29.8301 32.4469 29.9873 32.5016 30.1481 32.4954C30.3089 32.4891 30.4614 32.4225 30.5752 32.3087C30.6889 32.1949 30.7556 32.0424 30.7618 31.8816C30.768 31.7208 30.7133 31.5636 30.6087 31.4414L28.8901 29.7483C30.1188 28.4897 30.9492 26.8968 31.2774 25.1687C31.6055 23.4406 31.4169 21.6542 30.735 20.0327C30.0532 18.4113 28.9084 17.0269 27.4439 16.0527C25.9794 15.0785 24.2601 14.5577 22.5012 14.5555ZM27.2737 25.6914C27.2005 25.8436 27.07 25.9606 26.9108 26.0169C26.7515 26.0731 26.5765 26.0641 26.4239 25.9916L21.8623 23.7811V18.1908C21.8623 18.0214 21.9296 17.8589 22.0494 17.7391C22.1692 17.6192 22.3317 17.5519 22.5012 17.5519C22.6706 17.5519 22.8331 17.6192 22.9529 17.7391C23.0727 17.8589 23.1401 18.0214 23.1401 18.1908V22.9825L26.9734 24.8417C27.0499 24.8767 27.1187 24.9266 27.1758 24.9883C27.233 25.0501 27.2774 25.1225 27.3065 25.2015C27.3355 25.2804 27.3488 25.3643 27.3453 25.4484C27.3419 25.5325 27.3219 25.6151 27.2864 25.6914H27.2737Z" fill="#9E8763"/>
</g>
<defs>
<clipPath id="clip0_896_557">
<rect width="23" height="23" fill="white" transform="translate(11 12)"/>
</clipPath>
</defs>
</svg>
