<svg width="46" height="46" viewBox="0 0 46 46" fill="none" xmlns="http://www.w3.org/2000/svg">
<g clip-path="url(#clip0_840_553)">
<path d="M32.0544 34.1878L31.981 34.1419C31.9576 34.1269 31.9396 34.1134 31.9187 34.0994C31.8762 34.0695 31.8349 34.038 31.7948 34.005C31.7125 33.9384 31.6343 33.8669 31.5607 33.7909C31.4124 33.6366 31.2771 33.4674 31.1543 33.2867C30.9077 32.9258 30.706 32.5274 30.5323 32.117C30.3585 31.7057 30.2133 31.2794 30.0875 30.8475C30.0253 30.6313 29.968 30.4138 29.9158 30.195C29.8901 30.0859 29.8657 29.9766 29.8424 29.867C29.82 29.7587 29.797 29.6449 29.78 29.5445C29.7516 29.4037 29.6517 29.2804 29.506 29.2305L29.499 29.2281L29.1874 29.1207L28.8744 29.0094C28.666 28.9346 28.4582 28.8582 28.2509 28.7802C27.8366 28.6239 27.4252 28.4613 27.0194 28.2905C26.8151 28.2045 26.6122 28.1155 26.4105 28.0237C26.2467 26.5589 25.7201 25.2327 24.9434 24.1787C25.2284 24.1254 25.4916 24.0408 25.7467 23.9471C26.0797 23.8227 26.3962 23.6765 26.7037 23.5183C26.857 23.4389 27.0087 23.3564 27.1585 23.2707C27.2333 23.2276 27.3077 23.1839 27.3816 23.1393C27.4131 23.1202 27.4436 23.1015 27.4744 23.0825C27.5326 23.093 27.5919 23.1034 27.6512 23.1164C27.7705 23.1403 27.8909 23.1702 28.0111 23.2007C28.132 23.2326 28.2521 23.2669 28.3716 23.3036C28.432 23.3205 28.4919 23.341 28.5518 23.3599C28.6117 23.3794 28.6716 23.3988 28.731 23.4198C28.8508 23.4608 28.9701 23.5032 29.0889 23.5486C29.2082 23.5915 29.3256 23.6409 29.4439 23.6874C29.5038 23.7104 29.5607 23.7363 29.6196 23.7607L29.7943 23.8347L30.1487 23.9949C30.2516 24.0413 30.3759 24.0054 30.4363 23.9066C30.4519 23.8811 30.4623 23.8528 30.4669 23.8233C30.4716 23.7938 30.4704 23.7637 30.4634 23.7347C30.4564 23.7057 30.4437 23.6783 30.4261 23.6542C30.4085 23.63 30.3864 23.6096 30.3609 23.5941L30.0284 23.3909L29.8562 23.2911C29.7988 23.2581 29.7413 23.2232 29.6835 23.1922C29.5676 23.1288 29.4528 23.0629 29.3345 23.0025C29.2174 22.94 29.0991 22.8799 28.9796 22.8223C28.92 22.7922 28.8597 22.7634 28.7988 22.7359C28.7384 22.708 28.6785 22.6785 28.6166 22.652C28.494 22.5971 28.3703 22.5445 28.2457 22.4942C28.1199 22.4448 27.9931 22.3959 27.8623 22.352C27.7965 22.3294 27.7302 22.3081 27.6636 22.2881L27.5603 22.2581C27.5233 22.2487 27.4938 22.2402 27.4429 22.2297C27.3712 22.2146 27.2965 22.2233 27.2303 22.2546L27.1504 22.2921C27.09 22.3295 27.0181 22.3724 26.9502 22.4119C26.8812 22.4524 26.8117 22.4918 26.7415 22.5302C26.6015 22.6075 26.4599 22.6817 26.3167 22.7529C26.0307 22.8946 25.7396 23.0229 25.4476 23.1262C25.3055 23.1765 25.1621 23.2214 25.0209 23.2569C25.1865 22.8055 25.271 22.3284 25.2706 21.8476C25.271 21.403 25.1988 20.9613 25.057 20.5399C25.3666 20.4206 25.6624 20.2838 25.9506 20.1357C26.1038 20.0565 26.2553 19.9739 26.4049 19.8881C26.4798 19.8451 26.5541 19.8016 26.6285 19.7567C26.7034 19.7113 26.7738 19.6679 26.8537 19.6164L26.8886 19.592C26.9215 19.5683 26.9494 19.5383 26.9705 19.5037C27.0089 19.4408 27.0384 19.3878 27.0708 19.3304L27.1627 19.1607C27.2226 19.048 27.28 18.934 27.3349 18.8187C27.4452 18.5891 27.5476 18.356 27.6394 18.1179C27.7312 17.8802 27.8136 17.6376 27.8815 17.39C27.9154 17.2658 27.9453 17.1406 27.9714 17.0146C27.9839 16.9512 27.9964 16.8888 28.0068 16.8224C28.0188 16.7545 28.0248 16.6966 28.0333 16.6352C28.0411 16.5781 28.0269 16.5201 27.9936 16.4731C27.9603 16.426 27.9104 16.3934 27.8539 16.3819C27.7974 16.3703 27.7387 16.3807 27.6896 16.4109C27.6404 16.4411 27.6047 16.4888 27.5894 16.5444L27.5884 16.5469C27.5724 16.6053 27.557 16.6682 27.54 16.7196C27.5245 16.773 27.5051 16.8289 27.4866 16.8838C27.4476 16.9942 27.4067 17.1035 27.3608 17.2113C27.2694 17.4274 27.1651 17.6397 27.0517 17.8468C26.938 18.0541 26.8159 18.2568 26.6858 18.4544C26.6213 18.5532 26.5549 18.6507 26.4866 18.747L26.3833 18.8892C26.37 18.9071 26.356 18.9256 26.3421 18.9438C26.2954 18.9723 26.2453 19.002 26.1971 19.03C26.1279 19.07 26.0583 19.1095 25.9885 19.1483C25.8483 19.2257 25.7065 19.2999 25.5631 19.371C25.2771 19.5123 24.986 19.6406 24.6945 19.7444L24.6898 19.746C24.5522 19.5166 24.3926 19.3012 24.2132 19.1028C24.6999 18.6053 25.0094 17.8338 25.0094 16.8833C25.0094 16.162 24.6113 15.4988 24.1517 14.973C24.1782 14.9493 24.2038 14.9246 24.2286 14.899C24.3509 14.7707 24.4567 14.6155 24.5381 14.4467C24.6209 14.2785 24.6799 14.0968 24.7248 13.9106C24.7692 13.7244 24.7962 13.5327 24.8131 13.34C24.8216 13.2436 24.8261 13.1473 24.8296 13.0504L24.8321 12.9026L24.8311 12.7639C24.8286 12.5846 24.8341 12.4204 24.853 12.2551C24.8715 12.0914 24.9035 11.9337 24.9484 11.7884C24.9933 11.6427 25.0517 11.5093 25.1196 11.391C25.1875 11.2722 25.2669 11.1704 25.3478 11.0825C25.511 10.9063 25.6843 10.792 25.8171 10.7036C25.8844 10.6586 25.9409 10.6212 25.9883 10.5843C26.0023 10.5728 26.0143 10.5628 26.0248 10.5543C26.0348 10.5458 26.0373 10.5428 26.0422 10.5384C26.0502 10.5308 26.0542 10.5268 26.0542 10.5268C26.1001 10.4831 26.1274 10.4234 26.1304 10.3601C26.1334 10.2968 26.1118 10.2348 26.0702 10.1869C26.0274 10.1379 25.9668 10.1079 25.9018 10.1035C25.8369 10.0991 25.7728 10.1207 25.7238 10.1635L25.7223 10.1644C25.7223 10.1644 25.7183 10.1685 25.7098 10.1754C25.7063 10.1784 25.6988 10.1859 25.6958 10.1874C25.6933 10.189 25.6909 10.1904 25.6879 10.1924C25.6664 10.2074 25.617 10.2389 25.5486 10.2797C25.4118 10.3637 25.1907 10.4939 24.969 10.7141C24.8592 10.8239 24.7489 10.9547 24.6535 11.106C24.5577 11.2578 24.4753 11.4275 24.4109 11.6082C24.3465 11.7889 24.3006 11.9801 24.2701 12.1743C24.2396 12.367 24.2252 12.5697 24.2207 12.7574L24.2162 12.8942L24.2087 13.021C24.2032 13.1059 24.195 13.1907 24.1843 13.2751C24.1633 13.4418 24.1338 13.6025 24.0929 13.7494C24.051 13.8961 24.0006 14.0309 23.9391 14.1427C23.8787 14.2566 23.8089 14.3464 23.739 14.4143C23.7139 14.4382 23.6886 14.4584 23.6635 14.477C23.6558 14.4701 23.6482 14.463 23.6406 14.4562C23.5844 14.4057 23.5243 14.3597 23.4609 14.3185C23.5812 13.7516 23.4843 13.5257 23.4276 13.4479C23.3644 13.3613 23.27 13.3137 23.1616 13.3137C23.0608 13.3137 22.9806 13.3949 22.9796 13.4957C22.9788 13.5886 23.0485 13.6661 23.1383 13.6792C23.1669 13.7497 23.1551 13.9342 23.1143 14.1575C22.8873 14.0917 22.6504 14.0944 22.4241 14.1645C22.3822 13.9381 22.3699 13.7504 22.3987 13.6792C22.4886 13.6662 22.5583 13.5887 22.5574 13.4957C22.5565 13.3949 22.4763 13.3137 22.3755 13.3137C22.2671 13.3137 22.1727 13.3614 22.1095 13.4479C22.0523 13.5264 21.9544 13.7552 22.0791 14.332C22.0228 14.3696 21.9692 14.4112 21.9188 14.4563C21.8907 14.4816 21.8624 14.5078 21.8339 14.5343C21.7742 14.5018 21.7191 14.4616 21.6701 14.4145C21.5997 14.3462 21.5298 14.2568 21.4699 14.143C21.4085 14.0311 21.3576 13.8959 21.3161 13.7496C21.2747 13.6023 21.2452 13.4416 21.2243 13.2753C21.214 13.1907 21.2059 13.1058 21.1998 13.0207L21.1923 12.8939L21.1883 12.7576C21.1833 12.5699 21.1693 12.3667 21.1384 12.1745C21.1084 11.9803 21.062 11.7891 20.9976 11.6084C20.9337 11.4276 20.8513 11.2574 20.7555 11.1062C20.6601 10.9549 20.5498 10.8236 20.4395 10.7138C20.2178 10.4941 19.9966 10.3638 19.8599 10.2799C19.7915 10.239 19.742 10.2075 19.7211 10.1926C19.7184 10.1906 19.7156 10.189 19.7126 10.1876C19.7101 10.1857 19.7021 10.1787 19.6986 10.1757L19.6861 10.1646L19.6842 10.1632C19.6364 10.1217 19.5744 10.1002 19.5111 10.1033C19.4479 10.1063 19.3883 10.1337 19.3447 10.1796C19.3001 10.227 19.276 10.2902 19.2778 10.3553C19.2795 10.4204 19.307 10.4822 19.3542 10.5271C19.3542 10.5271 19.3587 10.5311 19.3667 10.5386C19.3717 10.5431 19.3737 10.5456 19.3837 10.5541C19.3941 10.5631 19.4066 10.5731 19.4201 10.5845C19.4675 10.6214 19.5239 10.6589 19.5914 10.7034C19.7242 10.7917 19.8974 10.9065 20.0606 11.0828C20.1482 11.1766 20.2247 11.2801 20.2888 11.3912C20.3604 11.517 20.4178 11.6502 20.46 11.7886C20.5055 11.9339 20.5369 12.0911 20.5559 12.2549C20.5749 12.4207 20.5804 12.5849 20.5774 12.7641L20.5768 12.9029L20.5793 13.0507C20.5823 13.1475 20.5873 13.2439 20.5958 13.3403C20.6123 13.5329 20.6392 13.7247 20.6837 13.9108C20.7287 14.097 20.7875 14.2783 20.8709 14.4469C20.9518 14.6157 21.0576 14.771 21.1804 14.8992C21.2314 14.9524 21.2864 15.0015 21.3448 15.0463C20.9124 15.5599 20.55 16.1953 20.55 16.8834C20.55 17.8338 20.8596 18.6053 21.3463 19.1028C21.1362 19.3352 20.9533 19.5908 20.8013 19.8647C20.6705 19.8299 20.5413 19.7898 20.4139 19.7444C20.1219 19.6406 19.8308 19.5123 19.5448 19.371C19.4014 19.2998 19.2596 19.2256 19.1194 19.1483C19.0496 19.1095 18.98 19.0701 18.9108 19.03C18.8623 19.0019 18.8142 18.9733 18.7663 18.9441C18.7524 18.9258 18.7385 18.9072 18.7251 18.8892L18.6217 18.747C18.5532 18.6508 18.4866 18.5533 18.4221 18.4544C18.292 18.2569 18.1701 18.0542 18.0566 17.8468C17.9428 17.6397 17.8385 17.4279 17.7471 17.2118C17.7012 17.1035 17.6603 16.9942 17.6213 16.8838C17.6028 16.829 17.5839 16.773 17.5679 16.7201C17.551 16.6682 17.5355 16.6053 17.5195 16.5469L17.519 16.5444C17.5043 16.4913 17.4709 16.4453 17.4249 16.4149C17.3789 16.3846 17.3235 16.3719 17.2689 16.3792C17.2092 16.3875 17.1553 16.4191 17.1189 16.4671C17.0825 16.5151 17.0666 16.5756 17.0747 16.6353C17.0832 16.6972 17.0892 16.7546 17.1011 16.8225C17.1116 16.8889 17.1241 16.9513 17.1366 17.0152C17.1626 17.1411 17.1928 17.2662 17.2269 17.3901C17.2948 17.6377 17.3767 17.8803 17.4686 18.118C17.5607 18.3557 17.6623 18.5897 17.7731 18.8193C17.8282 18.9344 17.8856 19.0485 17.9453 19.1613L18.0371 19.3305C18.0696 19.3879 18.099 19.4409 18.1375 19.5042C18.1592 19.5389 18.1875 19.5689 18.2208 19.5926L18.2543 19.6165C18.3287 19.6644 18.4037 19.7111 18.4794 19.7568C18.5538 19.8017 18.6282 19.8452 18.7031 19.8882C18.8527 19.974 19.0041 20.0566 19.1574 20.1358C19.4654 20.294 19.7814 20.4408 20.1144 20.5651C20.2268 20.6064 20.3411 20.6457 20.4579 20.6816C20.3456 21.0601 20.2887 21.4529 20.289 21.8477C20.2885 22.3568 20.3833 22.8614 20.5684 23.3356C20.5516 23.3346 20.5352 23.3342 20.5181 23.3327C20.2475 23.3102 19.951 23.2293 19.6604 23.1265C19.3684 23.0227 19.0773 22.8943 18.7918 22.7531C18.5767 22.6466 18.3652 22.5328 18.1578 22.4121C18.0904 22.3731 18.0237 22.333 17.9576 22.2919L17.8777 22.2544C17.8113 22.2235 17.7368 22.2148 17.665 22.2295C17.6141 22.2399 17.5847 22.2484 17.5477 22.2584L17.4444 22.2879C17.377 22.3088 17.3106 22.3298 17.2457 22.3523C17.1149 22.3962 16.9886 22.4451 16.8623 22.4946C16.7376 22.5447 16.6139 22.5973 16.4913 22.6523C16.4295 22.6787 16.3695 22.7077 16.3091 22.7361C16.2484 22.7637 16.1881 22.7923 16.1284 22.822C16.009 22.8802 15.8907 22.9404 15.7735 23.0027C15.6552 23.0631 15.5403 23.1291 15.4245 23.192C15.3666 23.2234 15.3092 23.2583 15.2518 23.2913L15.0796 23.3911L14.7471 23.5943C14.6507 23.6532 14.6108 23.7765 14.6587 23.8818C14.6836 23.9366 14.7292 23.9794 14.7856 24.0006C14.8419 24.0219 14.9044 24.0199 14.9593 23.9952L15.3137 23.8349L15.4889 23.761C15.5473 23.7365 15.6042 23.7106 15.6641 23.6876C15.7824 23.6413 15.8997 23.5918 16.0195 23.5489C16.1378 23.5035 16.2571 23.461 16.377 23.4201C16.4364 23.3986 16.4963 23.3797 16.5562 23.3602C16.6166 23.3412 16.676 23.3207 16.7364 23.3033C16.8562 23.2668 16.9765 23.2328 17.0968 23.2009C17.2171 23.17 17.3374 23.1405 17.4567 23.1166C17.5166 23.1037 17.5754 23.0932 17.6338 23.0827C17.6644 23.1016 17.6949 23.1201 17.7263 23.1391C17.948 23.2728 18.1741 23.3992 18.4043 23.518C18.7118 23.6768 19.0283 23.823 19.3613 23.9473C19.6952 24.0701 20.0427 24.1775 20.4356 24.2189C20.4825 24.2236 20.5303 24.2272 20.5789 24.2294C19.82 25.2786 19.3065 26.5912 19.1471 28.0383C18.956 28.125 18.7638 28.209 18.5704 28.2905C18.1646 28.4613 17.7527 28.624 17.3383 28.7803C17.1311 28.8585 16.9233 28.935 16.7148 29.0099L16.4023 29.1208L16.0903 29.2281L16.0828 29.2311C16.0138 29.2549 15.9522 29.2963 15.9042 29.3514C15.8562 29.4064 15.8235 29.473 15.8093 29.5447C15.7907 29.6526 15.7699 29.7601 15.7469 29.8671C15.7239 29.9768 15.6994 30.0861 15.6735 30.1951C15.6216 30.414 15.5643 30.6315 15.5018 30.8476C15.3765 31.2794 15.2312 31.7058 15.0575 32.1171C14.8833 32.5279 14.6816 32.9258 14.4355 33.2868C14.3121 33.4675 14.1769 33.6368 14.0286 33.791C13.9549 33.8669 13.8769 33.9386 13.7949 34.0056C13.7545 34.0381 13.713 34.0695 13.6707 34.0995C13.6497 34.1139 13.6317 34.1275 13.6088 34.1419L13.5349 34.1878C13.435 34.2502 13.3981 34.3806 13.4535 34.4863C13.4816 34.5396 13.5297 34.5794 13.5871 34.5972C13.6446 34.615 13.7068 34.6093 13.76 34.5812L13.8369 34.5408C13.8633 34.5268 13.8933 34.5083 13.9218 34.4918C13.9777 34.4574 14.0296 34.4245 14.0815 34.3875C14.1838 34.3153 14.2818 34.2373 14.3751 34.1539C14.5603 33.9877 14.727 33.8054 14.8778 33.6142C15.1804 33.2314 15.4275 32.816 15.6441 32.3902C15.8603 31.9643 16.045 31.5255 16.2092 31.0802C16.2906 30.8574 16.3669 30.6327 16.4378 30.4063C16.4732 30.2927 16.5074 30.1787 16.5402 30.0643C16.5505 30.0278 16.5605 29.9918 16.5705 29.9557L16.677 29.9205L16.9975 29.8107C17.211 29.7368 17.424 29.6614 17.6365 29.5846C18.0622 29.4299 18.4851 29.2676 18.905 29.0978C18.9683 29.0719 19.0314 29.0453 19.0946 29.019C19.0994 31.654 20.2687 33.9596 22.0168 35.2324C22.4845 35.5734 23.0746 35.5734 23.5429 35.2324C25.2934 33.9575 26.4637 31.6465 26.4647 29.0061C26.5381 29.0368 26.6114 29.0675 26.6848 29.0974C27.1045 29.2677 27.5274 29.43 27.9533 29.5842C28.1655 29.6615 28.3783 29.737 28.5917 29.8108L28.9128 29.9201L29.0192 29.9554C29.0607 30.1063 29.1049 30.2565 29.1519 30.4059C29.2226 30.6325 29.2989 30.8574 29.3805 31.0803C29.5442 31.5256 29.7289 31.9639 29.9451 32.3903C30.1623 32.8161 30.4094 33.2309 30.7114 33.6143C30.8626 33.8055 31.0294 33.9877 31.2141 34.154C31.3075 34.2375 31.4057 34.3155 31.5082 34.3876C31.5599 34.4243 31.613 34.4589 31.6674 34.4914C31.6959 34.5079 31.7258 34.5264 31.7523 34.5408L31.8292 34.5812C31.9335 34.6362 32.0648 34.6017 32.1277 34.5004C32.1435 34.475 32.154 34.4468 32.1589 34.4174C32.1637 34.388 32.1627 34.3579 32.1559 34.3289C32.1491 34.2998 32.1366 34.2724 32.1192 34.2482C32.1018 34.224 32.0798 34.2035 32.0544 34.1878ZM27.6072 22.9986L27.6065 22.9987L27.6067 22.9986H27.6072Z" fill="#B5AEA0"/>
</g>
<path d="M23 44C34.598 44 44 34.598 44 23C44 11.402 34.598 2 23 2C11.402 2 2 11.402 2 23C2 34.598 11.402 44 23 44Z" stroke="#B5AEA0" stroke-width="3" stroke-miterlimit="10"/>
<defs>
<clipPath id="clip0_840_553">
<rect width="25.9942" height="25.9942" fill="white" transform="translate(9.79785 9.79834)"/>
</clipPath>
</defs>
</svg>
