<svg width="45" height="46" viewBox="0 0 45 46" fill="none" xmlns="http://www.w3.org/2000/svg">
<path d="M13.1721 29.655C12.509 29.655 11.9945 29.8095 11.6287 30.1187C11.2628 30.4278 10.7141 30.6734 9.98239 30.8554C9.61654 30.9469 9.29094 30.8668 9.00558 30.6153C8.72022 30.3638 8.57709 30.0437 8.57617 29.655C8.57617 29.2663 8.70788 28.9288 8.97128 28.6425C9.23469 28.3562 9.53743 28.1221 9.87949 27.9401C10.2682 27.7343 10.6857 27.5111 11.1321 27.2706C11.5784 27.03 12.2584 26.9102 13.1721 26.9111C14.5211 26.9111 15.4074 27.1398 15.8309 27.5971C16.2543 28.0544 16.8772 28.2831 17.6994 28.2831C18.5683 28.2831 19.2145 28.0544 19.6379 27.5971C20.0614 27.1398 20.9472 26.9111 22.2953 26.9111C23.5987 26.9111 24.4849 27.1398 24.9541 27.5971C25.4233 28.0544 26.069 28.2831 26.8913 28.2831C27.7601 28.2831 28.3949 28.0544 28.7955 27.5971C29.1961 27.1398 30.0704 26.9111 31.4186 26.9111C32.3332 26.9111 33.0137 27.0314 33.46 27.2719C33.9063 27.5125 34.3234 27.7352 34.7112 27.9401C35.0542 28.123 35.3574 28.3576 35.6208 28.6439C35.8842 28.9301 36.0154 29.2672 36.0145 29.655C36.0145 30.0437 35.8773 30.3638 35.6029 30.6153C35.3286 30.8668 35.0084 30.9469 34.6426 30.8554C33.9109 30.6725 33.3562 30.4269 32.9785 30.1187C32.6007 29.8105 32.0808 29.6559 31.4186 29.655C30.5954 29.655 29.9726 29.8836 29.55 30.3409C29.1275 30.7982 28.2412 31.0269 26.8913 31.0269C25.5879 31.0269 24.7021 30.7982 24.2339 30.3409C23.7656 29.8836 23.1194 29.655 22.2953 29.655C21.4265 29.655 20.7803 29.8836 20.3568 30.3409C19.9334 30.7982 19.0476 31.0269 17.6994 31.0269C16.3504 31.0269 15.4755 30.7982 15.0749 30.3409C14.6743 29.8836 14.0401 29.655 13.1721 29.655ZM13.1721 24.1673C12.509 24.1673 11.989 24.3219 11.6122 24.631C11.2354 24.9401 10.6807 25.1857 9.94809 25.3677C9.58224 25.4592 9.26213 25.3792 8.98775 25.1276C8.71336 24.8761 8.57617 24.556 8.57617 24.1673C8.57617 23.7786 8.70742 23.4411 8.96991 23.1548C9.23241 22.8686 9.5356 22.6344 9.87949 22.4524C10.2682 22.2466 10.6857 22.0234 11.1321 21.7829C11.5784 21.5424 12.2584 21.4226 13.1721 21.4235C14.4754 21.4235 15.3502 21.6521 15.7966 22.1094C16.2429 22.5667 16.8772 22.7954 17.6994 22.7954C18.5683 22.7954 19.2145 22.5667 19.6379 22.1094C20.0614 21.6521 20.9472 21.4235 22.2953 21.4235C23.5987 21.4235 24.479 21.6521 24.9363 22.1094C25.3936 22.5667 26.0224 22.7954 26.8227 22.7954C27.6915 22.7954 28.3377 22.5667 28.7612 22.1094C29.1846 21.6521 30.0704 21.4235 31.4186 21.4235C32.2875 21.4235 32.9506 21.5437 33.4079 21.7843C33.8652 22.0248 34.2882 22.2475 34.6769 22.4524C35.0427 22.6353 35.3574 22.8699 35.6208 23.1562C35.8842 23.4425 36.0154 23.7795 36.0145 24.1673C36.0145 24.556 35.8714 24.8761 35.5851 25.1276C35.2988 25.3792 34.9732 25.4592 34.6083 25.3677C33.8766 25.1848 33.3278 24.9392 32.962 24.631C32.5961 24.3228 32.0817 24.1682 31.4186 24.1673C30.5954 24.1673 29.9726 24.396 29.55 24.8533C29.1275 25.3106 28.2412 25.5392 26.8913 25.5392C25.5879 25.5392 24.7021 25.3106 24.2339 24.8533C23.7656 24.396 23.1194 24.1673 22.2953 24.1673C21.4265 24.1673 20.7917 24.396 20.3911 24.8533C19.9905 25.3106 19.1162 25.5392 17.768 25.5392C16.419 25.5392 15.5217 25.3106 15.0763 24.8533C14.6309 24.396 13.9962 24.1673 13.1721 24.1673ZM13.1721 18.6796C12.509 18.6796 11.989 18.8342 11.6122 19.1433C11.2354 19.4525 10.6807 19.6981 9.94809 19.8801C9.58224 19.9715 9.26213 19.8915 8.98775 19.64C8.71336 19.3885 8.57617 19.0683 8.57617 18.6796C8.57617 18.2909 8.70742 17.9534 8.96991 17.6672C9.23241 17.3809 9.5356 17.1467 9.87949 16.9647C10.2682 16.7589 10.6857 16.5358 11.1321 16.2952C11.5784 16.0547 12.2584 15.9349 13.1721 15.9358C14.4754 15.9358 15.3502 16.1644 15.7966 16.6218C16.2429 17.0791 16.8772 17.3077 17.6994 17.3077C18.5683 17.3077 19.2145 17.0791 19.6379 16.6218C20.0614 16.1644 20.9472 15.9358 22.2953 15.9358C23.5987 15.9358 24.479 16.1644 24.9363 16.6218C25.3936 17.0791 26.0224 17.3077 26.8227 17.3077C27.6915 17.3077 28.3377 17.0791 28.7612 16.6218C29.1846 16.1644 30.0704 15.9358 31.4186 15.9358C32.2875 15.9358 32.9506 16.0561 33.4079 16.2966C33.8652 16.5372 34.2882 16.7599 34.6769 16.9647C35.0427 17.1477 35.3574 17.3823 35.6208 17.6685C35.8842 17.9548 36.0154 18.2918 36.0145 18.6796C36.0145 19.0683 35.8714 19.3885 35.5851 19.64C35.2988 19.8915 34.9732 19.9715 34.6083 19.8801C33.8766 19.6971 33.3278 19.4516 32.962 19.1433C32.5961 18.8351 32.0817 18.6805 31.4186 18.6796C30.5954 18.6796 29.9726 18.9083 29.55 19.3656C29.1275 19.8229 28.2412 20.0515 26.8913 20.0515C25.5879 20.0515 24.7021 19.8229 24.2339 19.3656C23.7656 18.9083 23.1194 18.6796 22.2953 18.6796C21.4265 18.6796 20.7917 18.9083 20.3911 19.3656C19.9905 19.8229 19.1162 20.0515 17.768 20.0515C16.419 20.0515 15.5217 19.8229 15.0763 19.3656C14.6309 18.9083 13.9962 18.6796 13.1721 18.6796Z" fill="#B5AEA0"/>
<path d="M22.5 44C34.098 44 43.5 34.598 43.5 23C43.5 11.402 34.098 2 22.5 2C10.902 2 1.5 11.402 1.5 23C1.5 34.598 10.902 44 22.5 44Z" stroke="#B5AEA0" stroke-width="3" stroke-miterlimit="10"/>
</svg>
