<svg width="87" height="87" viewBox="0 0 87 87" fill="none" xmlns="http://www.w3.org/2000/svg">
<g id="typcn:document">
<path id="Vector" d="M71.4379 26.4371L56.9379 11.9371C56.6018 11.5998 56.2024 11.3324 55.7625 11.1501C55.3227 10.9678 54.8511 10.8743 54.375 10.875H25.375C19.3793 10.875 14.5 15.7543 14.5 21.75V65.25C14.5 71.2458 19.3793 76.125 25.375 76.125H61.625C67.6208 76.125 72.5 71.2458 72.5 65.25V29C72.5007 28.5239 72.4072 28.0523 72.2249 27.6125C72.0426 27.1726 71.7752 26.7732 71.4379 26.4371ZM63.7493 29H59.8125C56.8146 29 54.375 26.5604 54.375 23.5625V19.6258L63.7493 29ZM61.625 68.875H25.375C24.4136 68.875 23.4916 68.4931 22.8117 67.8133C22.1319 67.1334 21.75 66.2114 21.75 65.25V21.75C21.75 20.7886 22.1319 19.8666 22.8117 19.1867C23.4916 18.5069 24.4136 18.125 25.375 18.125H50.75V23.5625C50.75 28.5614 54.8136 32.625 59.8125 32.625H65.25V65.25C65.25 66.2114 64.8681 67.1334 64.1883 67.8133C63.5084 68.4931 62.5864 68.875 61.625 68.875Z" fill="url(#paint0_linear_1_534)"/>
</g>
<defs>
<linearGradient id="paint0_linear_1_534" x1="43.5" y1="10.875" x2="43.5" y2="76.125" gradientUnits="userSpaceOnUse">
<stop stop-color="#9E8763"/>
<stop offset="1" stop-color="#EBC180" stop-opacity="0.71"/>
</linearGradient>
</defs>
</svg>
