<svg width="66" height="66" viewBox="0 0 66 66" fill="none" xmlns="http://www.w3.org/2000/svg">
<g id="uiw:document">
<path id="Vector" d="M56.8458 0C60.0798 0 62.7 2.6862 62.7 5.9994V60.0006C62.7 63.3138 60.0798 66 56.8458 66H14.9886C11.7546 66 9.13436 63.3138 9.13436 60.0006L9.13106 54.4368H5.49446C4.90629 54.429 4.34516 54.1885 3.93389 53.7679C3.52261 53.3474 3.29468 52.781 3.29996 52.1928C3.29996 50.9487 4.28336 49.9422 5.49446 49.9422H9.13106V41.9595H5.49446C4.90513 41.9517 4.343 41.7103 3.93154 41.2883C3.52007 40.8663 3.29292 40.2982 3.29996 39.7089C3.29996 38.4648 4.28336 37.4583 5.49446 37.4583L9.13106 37.455V29.4327H5.49446C4.90629 29.4249 4.34516 29.1844 3.93389 28.7638C3.52261 28.3433 3.29468 27.7769 3.29996 27.1887C3.29996 25.9446 4.28336 24.9381 5.49446 24.9381L9.13106 24.9348V16.9026H5.49446C4.90571 16.8948 4.34408 16.6538 3.93271 16.2325C3.52134 15.8113 3.2938 15.2441 3.29996 14.6553C3.29996 13.4112 4.28336 12.4047 5.49446 12.4047L9.13106 12.4014L9.13436 5.9994C9.13436 2.6862 11.7546 0 14.9886 0H56.8458ZM46.1274 4.5012H14.7378C14.583 4.50731 14.4312 4.54501 14.2916 4.61198C14.152 4.67894 14.0276 4.77376 13.926 4.8906C13.6938 5.12948 13.5535 5.44273 13.53 5.775V12.4014H16.3152C16.608 12.4026 16.8977 12.4622 17.1673 12.5767C17.4369 12.6911 17.6809 12.8582 17.8852 13.068C18.0895 13.2778 18.25 13.5263 18.3572 13.7988C18.4644 14.0713 18.5162 14.3625 18.5097 14.6553C18.5158 15.2441 18.2883 15.8113 17.8769 16.2325C17.4655 16.6538 16.9039 16.8948 16.3152 16.9026H13.53V24.9249H16.4109L16.5594 24.948L16.3152 24.9348C16.6762 24.9345 17.0315 25.0253 17.3481 25.1988L17.4141 25.2351C17.5665 25.3249 17.7045 25.4372 17.8233 25.5684L17.6418 25.3935C17.8981 25.5947 18.1078 25.849 18.2564 26.139C18.4051 26.4289 18.4892 26.7476 18.5031 27.0732L18.48 26.8092C18.5343 27.1114 18.5256 27.4216 18.4545 27.7203C18.3834 28.019 18.2514 28.2998 18.0668 28.5451C17.8822 28.7905 17.6489 28.9951 17.3816 29.1461C17.1142 29.2971 16.8186 29.3913 16.5132 29.4228L16.4142 29.4294L16.3614 29.4327H13.53V37.455H16.3152C16.67 37.4554 17.0193 37.5438 17.3316 37.7124C17.5362 37.8114 17.6979 37.9302 17.8266 38.0787L17.7276 37.983C18.0498 38.2605 18.2876 38.623 18.4136 39.0291C18.5396 39.4352 18.5489 39.8686 18.4404 40.2798L18.4107 40.3788C18.2553 40.8941 17.9205 41.3366 17.4669 41.6262L17.4339 41.6427C17.0973 41.8491 16.7099 41.9576 16.3152 41.9562H13.53V49.9389H16.4109C16.4373 49.9389 16.4637 49.9455 16.4868 49.9521L16.3152 49.9389C17.5263 49.9389 18.5097 50.9454 18.5097 52.1895C18.5097 52.9221 18.1665 53.5755 17.6352 53.9847L17.5923 54.0177C17.5273 54.0665 17.4589 54.1106 17.3877 54.1497L17.3613 54.1629C17.0837 54.3219 16.7731 54.4146 16.4538 54.4335H16.4109L16.3614 54.4401H16.3152L13.53 54.4368V60.258C13.5498 60.4791 13.629 60.687 13.7676 60.885L13.926 61.0764C14.1669 61.3305 14.4639 61.4724 14.817 61.5054H46.1274V4.5012ZM56.8986 4.4946H50.5032V61.4988H57.0174C57.3177 61.4988 57.5982 61.3602 57.8622 61.0698C58.1009 60.8316 58.256 60.5225 58.3044 60.1887V5.9202C58.2749 5.55119 58.1186 5.20374 57.8622 4.9368C57.739 4.80275 57.5903 4.6946 57.4249 4.61867C57.2594 4.54274 57.0805 4.50056 56.8986 4.4946Z" fill="url(#paint0_linear_1_532)"/>
</g>
<defs>
<linearGradient id="paint0_linear_1_532" x1="32.9999" y1="0" x2="32.9999" y2="66" gradientUnits="userSpaceOnUse">
<stop stop-color="#9E8763"/>
<stop offset="1" stop-color="#EBC180" stop-opacity="0.89"/>
</linearGradient>
</defs>
</svg>
